<?xml version="1.0" encoding="UTF-8" standalone="no"?>
<!DOCTYPE svg PUBLIC "-//W3C//DTD SVG 1.1//EN"
 "http://www.w3.org/Graphics/SVG/1.1/DTD/svg11.dtd">
<!-- Generated by graphviz version 6.0.1 (0)
 -->
<!-- Title: snakemake_dag Pages: 1 -->
<svg width="361pt" height="332pt"
 viewBox="0.00 0.00 361.00 332.00" xmlns="http://www.w3.org/2000/svg" xmlns:xlink="http://www.w3.org/1999/xlink">
<g id="graph0" class="graph" transform="scale(1 1) rotate(0) translate(4 328)">
<title>snakemake_dag</title>
<polygon fill="white" stroke="none" points="-4,4 -4,-328 357,-328 357,4 -4,4"/>
<!-- 0 -->
<g id="node1" class="node">
<title>0</title>
<path fill="none" stroke="#56d8a9" stroke-width="2" d="M236,-36C236,-36 206,-36 206,-36 200,-36 194,-30 194,-24 194,-24 194,-12 194,-12 194,-6 200,0 206,0 206,0 236,0 236,0 242,0 248,-6 248,-12 248,-12 248,-24 248,-24 248,-30 242,-36 236,-36"/>
<text text-anchor="middle" x="221" y="-15.5" font-family="sans" font-size="10.00">all</text>
</g>
<!-- 1 -->
<g id="node2" class="node">
<title>1</title>
<path fill="none" stroke="#70d856" stroke-width="2" d="M181,-108C181,-108 83,-108 83,-108 77,-108 71,-102 71,-96 71,-96 71,-84 71,-84 71,-78 77,-72 83,-72 83,-72 181,-72 181,-72 187,-72 193,-78 193,-84 193,-84 193,-96 193,-96 193,-102 187,-108 181,-108"/>
<text text-anchor="middle" x="132" y="-87.5" font-family="sans" font-size="10.00">deploy_to_github_pages</text>
</g>
<!-- 1&#45;&gt;0 -->
<g id="edge2" class="edge">
<title>1&#45;&gt;0</title>
<path fill="none" stroke="grey" stroke-width="2" d="M154,-71.7C165.21,-62.88 179,-52.03 191.15,-42.47"/>
<polygon fill="grey" stroke="grey" stroke-width="2" points="193.56,-45.04 199.25,-36.1 189.23,-39.54 193.56,-45.04"/>
</g>
<!-- 2 -->
<g id="node3" class="node">
<title>2</title>
<path fill="none" stroke="#5692d8" stroke-width="2" d="M82,-180C82,-180 12,-180 12,-180 6,-180 0,-174 0,-168 0,-168 0,-156 0,-156 0,-150 6,-144 12,-144 12,-144 82,-144 82,-144 88,-144 94,-150 94,-156 94,-156 94,-168 94,-168 94,-174 88,-180 82,-180"/>
<text text-anchor="middle" x="47" y="-159.5" font-family="sans" font-size="10.00">get_dot_rulegraph</text>
</g>
<!-- 2&#45;&gt;1 -->
<g id="edge4" class="edge">
<title>2&#45;&gt;1</title>
<path fill="none" stroke="grey" stroke-width="2" d="M68.01,-143.7C78.72,-134.88 91.89,-124.03 103.5,-114.47"/>
<polygon fill="grey" stroke="grey" stroke-width="2" points="105.74,-117.16 111.23,-108.1 101.29,-111.76 105.74,-117.16"/>
</g>
<!-- 3 -->
<g id="node4" class="node">
<title>3</title>
<path fill="none" stroke="#d88d56" stroke-width="2" d="M168,-180C168,-180 124,-180 124,-180 118,-180 112,-174 112,-168 112,-168 112,-156 112,-156 112,-150 118,-144 124,-144 124,-144 168,-144 168,-144 174,-144 180,-150 180,-156 180,-156 180,-168 180,-168 180,-174 174,-180 168,-180"/>
<text text-anchor="middle" x="146" y="-159.5" font-family="sans" font-size="10.00">project_tree</text>
</g>
<!-- 3&#45;&gt;1 -->
<g id="edge5" class="edge">
<title>3&#45;&gt;1</title>
<path fill="none" stroke="grey" stroke-width="2" d="M142.54,-143.7C141,-135.98 139.14,-126.71 137.42,-118.11"/>
<polygon fill="grey" stroke="grey" stroke-width="2" points="140.81,-117.22 135.42,-108.1 133.95,-118.6 140.81,-117.22"/>
</g>
<!-- 4 -->
<g id="node5" class="node">
<title>4</title>
<path fill="none" stroke="#d85656" stroke-width="2" d="M337,-180C337,-180 237,-180 237,-180 231,-180 225,-174 225,-168 225,-168 225,-156 225,-156 225,-150 231,-144 237,-144 237,-144 337,-144 337,-144 343,-144 349,-150 349,-156 349,-156 349,-168 349,-168 349,-174 343,-180 337,-180"/>
<text text-anchor="middle" x="287" y="-159.5" font-family="sans" font-size="10.00">fasterq_dump_sra_reads</text>
</g>
<!-- 4&#45;&gt;0 -->
<g id="edge3" class="edge">
<title>4&#45;&gt;0</title>
<path fill="none" stroke="grey" stroke-width="2" d="M267.41,-143.65C257.76,-134.06 246.77,-121.39 240,-108 230.23,-88.67 225.48,-64.52 223.17,-46.25"/>
<polygon fill="grey" stroke="grey" stroke-width="2" points="226.64,-45.82 222.07,-36.26 219.68,-46.58 226.64,-45.82"/>
</g>
<!-- 7 -->
<g id="node8" class="node">
<title>7</title>
<path fill="none" stroke="#afd856" stroke-width="2" d="M341,-108C341,-108 261,-108 261,-108 255,-108 249,-102 249,-96 249,-96 249,-84 249,-84 249,-78 255,-72 261,-72 261,-72 341,-72 341,-72 347,-72 353,-78 353,-84 353,-84 353,-96 353,-96 353,-102 347,-108 341,-108"/>
<text text-anchor="middle" x="301" y="-87.5" font-family="sans" font-size="10.00">pigz_if_uncompress</text>
</g>
<!-- 4&#45;&gt;7 -->
<g id="edge8" class="edge">
<title>4&#45;&gt;7</title>
<path fill="none" stroke="grey" stroke-width="2" d="M290.46,-143.7C292,-135.98 293.86,-126.71 295.58,-118.11"/>
<polygon fill="grey" stroke="grey" stroke-width="2" points="299.05,-118.6 297.58,-108.1 292.19,-117.22 299.05,-118.6"/>
</g>
<!-- 5 -->
<g id="node6" class="node">
<title>5</title>
<path fill="none" stroke="#56d873" stroke-width="2" d="M335,-252C335,-252 239,-252 239,-252 233,-252 227,-246 227,-240 227,-240 227,-228 227,-228 227,-222 233,-216 239,-216 239,-216 335,-216 335,-216 341,-216 347,-222 347,-228 347,-228 347,-240 347,-240 347,-246 341,-252 335,-252"/>
<text text-anchor="middle" x="287" y="-231.5" font-family="sans" font-size="10.00">extract_sra_accessions</text>
</g>
<!-- 5&#45;&gt;4 -->
<g id="edge6" class="edge">
<title>5&#45;&gt;4</title>
<path fill="none" stroke="grey" stroke-width="2" d="M287,-215.7C287,-207.98 287,-198.71 287,-190.11"/>
<polygon fill="grey" stroke="grey" stroke-width="2" points="290.5,-190.1 287,-180.1 283.5,-190.1 290.5,-190.1"/>
</g>
<!-- 6 -->
<g id="node7" class="node">
<title>6</title>
<path fill="none" stroke="#56c9d8" stroke-width="2" d="M319.5,-324C319.5,-324 254.5,-324 254.5,-324 248.5,-324 242.5,-318 242.5,-312 242.5,-312 242.5,-300 242.5,-300 242.5,-294 248.5,-288 254.5,-288 254.5,-288 319.5,-288 319.5,-288 325.5,-288 331.5,-294 331.5,-300 331.5,-300 331.5,-312 331.5,-312 331.5,-318 325.5,-324 319.5,-324"/>
<text text-anchor="middle" x="287" y="-303.5" font-family="sans" font-size="10.00">import_metadata</text>
</g>
<!-- 6&#45;&gt;5 -->
<g id="edge7" class="edge">
<title>6&#45;&gt;5</title>
<path fill="none" stroke="grey" stroke-width="2" d="M287,-287.7C287,-279.98 287,-270.71 287,-262.11"/>
<polygon fill="grey" stroke="grey" stroke-width="2" points="290.5,-262.1 287,-252.1 283.5,-262.1 290.5,-262.1"/>
</g>
<!-- 7&#45;&gt;0 -->
<g id="edge1" class="edge">
<title>7&#45;&gt;0</title>
<path fill="none" stroke="grey" stroke-width="2" d="M281.22,-71.7C271.25,-62.97 258.99,-52.24 248.14,-42.75"/>
<polygon fill="grey" stroke="grey" stroke-width="2" points="250.38,-40.06 240.55,-36.1 245.77,-45.32 250.38,-40.06"/>
</g>
</g>
</svg>
