<?xml version="1.0" encoding="UTF-8" standalone="no"?>
<!DOCTYPE svg PUBLIC "-//W3C//DTD SVG 1.1//EN"
 "http://www.w3.org/Graphics/SVG/1.1/DTD/svg11.dtd">
<!-- Generated by graphviz version 7.1.0 (0)
 -->
<!-- Title: snakemake_dag Pages: 1 -->
<svg width="1200pt" height="548pt"
 viewBox="0.00 0.00 1199.50 548.00" xmlns="http://www.w3.org/2000/svg" xmlns:xlink="http://www.w3.org/1999/xlink">
<g id="graph0" class="graph" transform="scale(1 1) rotate(0) translate(4 544)">
<title>snakemake_dag</title>
<polygon fill="white" stroke="none" points="-4,4 -4,-544 1195.5,-544 1195.5,4 -4,4"/>
<!-- 0 -->
<g id="node1" class="node">
<title>0</title>
<path fill="none" stroke="#d8d356" stroke-width="2" d="M347,-36C347,-36 317,-36 317,-36 311,-36 305,-30 305,-24 305,-24 305,-12 305,-12 305,-6 311,0 317,0 317,0 347,0 347,0 353,0 359,-6 359,-12 359,-12 359,-24 359,-24 359,-30 353,-36 347,-36"/>
<text text-anchor="middle" x="332" y="-15.5" font-family="sans" font-size="10.00">all</text>
</g>
<!-- 1 -->
<g id="node2" class="node">
<title>1</title>
<path fill="none" stroke="#56d8b9" stroke-width="2" d="M346,-180C346,-180 266,-180 266,-180 260,-180 254,-174 254,-168 254,-168 254,-156 254,-156 254,-150 260,-144 266,-144 266,-144 346,-144 346,-144 352,-144 358,-150 358,-156 358,-156 358,-168 358,-168 358,-174 352,-180 346,-180"/>
<text text-anchor="middle" x="306" y="-159.5" font-family="sans" font-size="10.00">normalizeBinShared</text>
</g>
<!-- 1&#45;&gt;0 -->
<g id="edge9" class="edge">
<title>1&#45;&gt;0</title>
<path fill="none" stroke="grey" stroke-width="2" d="M292.75,-143.28C280.87,-125.07 266.76,-96.08 277,-72 281.2,-62.11 288.26,-53.17 295.94,-45.57"/>
<polygon fill="grey" stroke="grey" stroke-width="2" points="298.13,-48.31 303.22,-39.01 293.44,-43.11 298.13,-48.31"/>
</g>
<!-- 2 -->
<g id="node3" class="node">
<title>2</title>
<path fill="none" stroke="#80d856" stroke-width="2" d="M288,-324C288,-324 226,-324 226,-324 220,-324 214,-318 214,-312 214,-312 214,-300 214,-300 214,-294 220,-288 226,-288 226,-288 288,-288 288,-288 294,-288 300,-294 300,-300 300,-300 300,-312 300,-312 300,-318 294,-324 288,-324"/>
<text text-anchor="middle" x="257" y="-303.5" font-family="sans" font-size="10.00">makeBinShared</text>
</g>
<!-- 2&#45;&gt;1 -->
<g id="edge13" class="edge">
<title>2&#45;&gt;1</title>
<path fill="none" stroke="grey" stroke-width="2" d="M268.99,-287.04C275.16,-277.08 282.35,-264.26 287,-252 294.12,-233.23 298.85,-211.18 301.81,-193.71"/>
<polygon fill="grey" stroke="grey" stroke-width="2" points="305.27,-194.26 303.35,-183.84 298.36,-193.18 305.27,-194.26"/>
</g>
<!-- 4 -->
<g id="node5" class="node">
<title>4</title>
<path fill="none" stroke="#d87556" stroke-width="2" d="M266,-252C266,-252 210,-252 210,-252 204,-252 198,-246 198,-240 198,-240 198,-228 198,-228 198,-222 204,-216 210,-216 210,-216 266,-216 266,-216 272,-216 278,-222 278,-228 278,-228 278,-240 278,-240 278,-246 272,-252 266,-252"/>
<text text-anchor="middle" x="238" y="-231.5" font-family="sans" font-size="10.00">splitBinShared</text>
</g>
<!-- 2&#45;&gt;4 -->
<g id="edge15" class="edge">
<title>2&#45;&gt;4</title>
<path fill="none" stroke="grey" stroke-width="2" d="M252.21,-287.34C250.4,-280.67 248.28,-272.89 246.25,-265.39"/>
<polygon fill="grey" stroke="grey" stroke-width="2" points="249.65,-264.56 243.65,-255.82 242.89,-266.39 249.65,-264.56"/>
</g>
<!-- 3 -->
<g id="node4" class="node">
<title>3</title>
<path fill="none" stroke="#d8c356" stroke-width="2" d="M290.5,-396C290.5,-396 223.5,-396 223.5,-396 217.5,-396 211.5,-390 211.5,-384 211.5,-384 211.5,-372 211.5,-372 211.5,-366 217.5,-360 223.5,-360 223.5,-360 290.5,-360 290.5,-360 296.5,-360 302.5,-366 302.5,-372 302.5,-372 302.5,-384 302.5,-384 302.5,-390 296.5,-396 290.5,-396"/>
<text text-anchor="middle" x="257" y="-375.5" font-family="sans" font-size="10.00">combineBinStats</text>
</g>
<!-- 3&#45;&gt;1 -->
<g id="edge12" class="edge">
<title>3&#45;&gt;1</title>
<path fill="none" stroke="grey" stroke-width="2" d="M281.57,-359.2C292.14,-350.02 303.34,-337.84 309,-324 326.47,-281.24 320.14,-226.61 313.45,-193.24"/>
<polygon fill="grey" stroke="grey" stroke-width="2" points="316.92,-192.73 311.38,-183.7 310.09,-194.22 316.92,-192.73"/>
</g>
<!-- 3&#45;&gt;2 -->
<g id="edge14" class="edge">
<title>3&#45;&gt;2</title>
<path fill="none" stroke="grey" stroke-width="2" d="M257,-359.34C257,-352.75 257,-345.08 257,-337.67"/>
<polygon fill="grey" stroke="grey" stroke-width="2" points="260.5,-337.93 257,-327.93 253.5,-337.93 260.5,-337.93"/>
</g>
<!-- 15 -->
<g id="node16" class="node">
<title>15</title>
<path fill="none" stroke="#56d892" stroke-width="2" d="M223.5,-180C223.5,-180 138.5,-180 138.5,-180 132.5,-180 126.5,-174 126.5,-168 126.5,-168 126.5,-156 126.5,-156 126.5,-150 132.5,-144 138.5,-144 138.5,-144 223.5,-144 223.5,-144 229.5,-144 235.5,-150 235.5,-156 235.5,-156 235.5,-168 235.5,-168 235.5,-174 229.5,-180 223.5,-180"/>
<text text-anchor="middle" x="181" y="-159.5" font-family="sans" font-size="10.00">subsampleBinShared</text>
</g>
<!-- 3&#45;&gt;15 -->
<g id="edge26" class="edge">
<title>3&#45;&gt;15</title>
<path fill="none" stroke="grey" stroke-width="2" d="M234.28,-359.06C223.87,-349.67 212.26,-337.37 205,-324 182.61,-282.74 179.17,-227.24 179.52,-193.35"/>
<polygon fill="grey" stroke="grey" stroke-width="2" points="183.01,-193.78 179.76,-183.69 176.01,-193.6 183.01,-193.78"/>
</g>
<!-- 16 -->
<g id="node17" class="node">
<title>16</title>
<path fill="none" stroke="#56d89a" stroke-width="2" d="M477.5,-180C477.5,-180 388.5,-180 388.5,-180 382.5,-180 376.5,-174 376.5,-168 376.5,-168 376.5,-156 376.5,-156 376.5,-150 382.5,-144 388.5,-144 388.5,-144 477.5,-144 477.5,-144 483.5,-144 489.5,-150 489.5,-156 489.5,-156 489.5,-168 489.5,-168 489.5,-174 483.5,-180 477.5,-180"/>
<text text-anchor="middle" x="433" y="-159.5" font-family="sans" font-size="10.00">calcBinAlphaDiversity</text>
</g>
<!-- 3&#45;&gt;16 -->
<g id="edge28" class="edge">
<title>3&#45;&gt;16</title>
<path fill="none" stroke="grey" stroke-width="2" d="M285.48,-359.18C299.25,-349.74 315.47,-337.35 328,-324 366.44,-283.04 399.73,-226.34 418.02,-192.3"/>
<polygon fill="grey" stroke="grey" stroke-width="2" points="421.07,-194.02 422.64,-183.54 414.88,-190.75 421.07,-194.02"/>
</g>
<!-- 18 -->
<g id="node19" class="node">
<title>18</title>
<path fill="none" stroke="#56d0d8" stroke-width="2" d="M96,-180C96,-180 12,-180 12,-180 6,-180 0,-174 0,-168 0,-168 0,-156 0,-156 0,-150 6,-144 12,-144 12,-144 96,-144 96,-144 102,-144 108,-150 108,-156 108,-156 108,-168 108,-168 108,-174 102,-180 96,-180"/>
<text text-anchor="middle" x="54" y="-159.5" font-family="sans" font-size="10.00">calcBinBetaDiversity</text>
</g>
<!-- 3&#45;&gt;18 -->
<g id="edge31" class="edge">
<title>3&#45;&gt;18</title>
<path fill="none" stroke="grey" stroke-width="2" d="M230.58,-359.22C216.95,-349.51 200.43,-336.87 187,-324 142.56,-281.4 98.56,-224.48 73.96,-190.98"/>
<polygon fill="grey" stroke="grey" stroke-width="2" points="76.89,-189.05 68.18,-183.02 71.23,-193.16 76.89,-189.05"/>
</g>
<!-- 4&#45;&gt;1 -->
<g id="edge11" class="edge">
<title>4&#45;&gt;1</title>
<path fill="none" stroke="grey" stroke-width="2" d="M255.16,-215.34C262.59,-207.69 271.46,-198.56 279.69,-190.08"/>
<polygon fill="grey" stroke="grey" stroke-width="2" points="282.04,-192.68 286.5,-183.07 277.02,-187.81 282.04,-192.68"/>
</g>
<!-- 4&#45;&gt;15 -->
<g id="edge27" class="edge">
<title>4&#45;&gt;15</title>
<path fill="none" stroke="grey" stroke-width="2" d="M223.62,-215.34C217.59,-207.93 210.43,-199.14 203.72,-190.9"/>
<polygon fill="grey" stroke="grey" stroke-width="2" points="206.52,-188.79 197.49,-183.25 201.09,-193.21 206.52,-188.79"/>
</g>
<!-- 4&#45;&gt;16 -->
<g id="edge29" class="edge">
<title>4&#45;&gt;16</title>
<path fill="none" stroke="grey" stroke-width="2" d="M278.88,-218.33C305.58,-208.74 340.94,-196.05 371.06,-185.23"/>
<polygon fill="grey" stroke="grey" stroke-width="2" points="372.1,-188.58 380.33,-181.91 369.73,-181.99 372.1,-188.58"/>
</g>
<!-- 4&#45;&gt;18 -->
<g id="edge32" class="edge">
<title>4&#45;&gt;18</title>
<path fill="none" stroke="grey" stroke-width="2" d="M197.16,-217.46C172.45,-208.06 140.51,-195.91 113.07,-185.47"/>
<polygon fill="grey" stroke="grey" stroke-width="2" points="114.64,-182.33 104.05,-182.04 112.15,-188.87 114.64,-182.33"/>
</g>
<!-- 5 -->
<g id="node6" class="node">
<title>5</title>
<path fill="none" stroke="#56d8c9" stroke-width="2" d="M1049.5,-180C1049.5,-180 1010.5,-180 1010.5,-180 1004.5,-180 998.5,-174 998.5,-168 998.5,-168 998.5,-156 998.5,-156 998.5,-150 1004.5,-144 1010.5,-144 1010.5,-144 1049.5,-144 1049.5,-144 1055.5,-144 1061.5,-150 1061.5,-156 1061.5,-156 1061.5,-168 1061.5,-168 1061.5,-174 1055.5,-180 1049.5,-180"/>
<text text-anchor="middle" x="1030" y="-159.5" font-family="sans" font-size="10.00">binContigs</text>
</g>
<!-- 25 -->
<g id="node26" class="node">
<title>25</title>
<path fill="none" stroke="#56a2d8" stroke-width="2" d="M935,-108C935,-108 889,-108 889,-108 883,-108 877,-102 877,-96 877,-96 877,-84 877,-84 877,-78 883,-72 889,-72 889,-72 935,-72 935,-72 941,-72 947,-78 947,-84 947,-84 947,-96 947,-96 947,-102 941,-108 935,-108"/>
<text text-anchor="middle" x="912" y="-87.5" font-family="sans" font-size="10.00">classifyBins</text>
</g>
<!-- 5&#45;&gt;25 -->
<g id="edge35" class="edge">
<title>5&#45;&gt;25</title>
<path fill="none" stroke="grey" stroke-width="2" d="M999.92,-143.15C985.63,-134.68 968.34,-124.42 952.89,-115.25"/>
<polygon fill="grey" stroke="grey" stroke-width="2" points="955.02,-112.45 944.63,-110.36 951.45,-118.47 955.02,-112.45"/>
</g>
<!-- 6 -->
<g id="node7" class="node">
<title>6</title>
<path fill="none" stroke="#d85656" stroke-width="2" d="M1066.5,-252C1066.5,-252 993.5,-252 993.5,-252 987.5,-252 981.5,-246 981.5,-240 981.5,-240 981.5,-228 981.5,-228 981.5,-222 987.5,-216 993.5,-216 993.5,-216 1066.5,-216 1066.5,-216 1072.5,-216 1078.5,-222 1078.5,-228 1078.5,-228 1078.5,-240 1078.5,-240 1078.5,-246 1072.5,-252 1066.5,-252"/>
<text text-anchor="middle" x="1030" y="-231.5" font-family="sans" font-size="10.00">curateViralContigs</text>
</g>
<!-- 6&#45;&gt;5 -->
<g id="edge16" class="edge">
<title>6&#45;&gt;5</title>
<path fill="none" stroke="grey" stroke-width="2" d="M1030,-215.34C1030,-208.75 1030,-201.08 1030,-193.67"/>
<polygon fill="grey" stroke="grey" stroke-width="2" points="1033.5,-193.93 1030,-183.93 1026.5,-193.93 1033.5,-193.93"/>
</g>
<!-- 7 -->
<g id="node8" class="node">
<title>7</title>
<path fill="none" stroke="#d8bc56" stroke-width="2" d="M1052.5,-396C1052.5,-396 1007.5,-396 1007.5,-396 1001.5,-396 995.5,-390 995.5,-384 995.5,-384 995.5,-372 995.5,-372 995.5,-366 1001.5,-360 1007.5,-360 1007.5,-360 1052.5,-360 1052.5,-360 1058.5,-360 1064.5,-366 1064.5,-372 1064.5,-372 1064.5,-384 1064.5,-384 1064.5,-390 1058.5,-396 1052.5,-396"/>
<text text-anchor="middle" x="1030" y="-375.5" font-family="sans" font-size="10.00">filterContigs</text>
</g>
<!-- 7&#45;&gt;6 -->
<g id="edge17" class="edge">
<title>7&#45;&gt;6</title>
<path fill="none" stroke="grey" stroke-width="2" d="M1030,-359.02C1030,-335.54 1030,-294.11 1030,-265.64"/>
<polygon fill="grey" stroke="grey" stroke-width="2" points="1033.5,-265.87 1030,-255.87 1026.5,-265.87 1033.5,-265.87"/>
</g>
<!-- 10 -->
<g id="node11" class="node">
<title>10</title>
<path fill="none" stroke="#d6d856" stroke-width="2" d="M1162,-324C1162,-324 1070,-324 1070,-324 1064,-324 1058,-318 1058,-312 1058,-312 1058,-300 1058,-300 1058,-294 1064,-288 1070,-288 1070,-288 1162,-288 1162,-288 1168,-288 1174,-294 1174,-300 1174,-300 1174,-312 1174,-312 1174,-318 1168,-324 1162,-324"/>
<text text-anchor="middle" x="1116" y="-303.5" font-family="sans" font-size="10.00">predictContigsVirsorter</text>
</g>
<!-- 7&#45;&gt;10 -->
<g id="edge22" class="edge">
<title>7&#45;&gt;10</title>
<path fill="none" stroke="grey" stroke-width="2" d="M1051.7,-359.34C1061.51,-351.36 1073.29,-341.77 1084.07,-332.99"/>
<polygon fill="grey" stroke="grey" stroke-width="2" points="1086.11,-335.84 1091.66,-326.81 1081.69,-330.41 1086.11,-335.84"/>
</g>
<!-- 12 -->
<g id="node13" class="node">
<title>12</title>
<path fill="none" stroke="#569ad8" stroke-width="2" d="M990,-324C990,-324 898,-324 898,-324 892,-324 886,-318 886,-312 886,-312 886,-300 886,-300 886,-294 892,-288 898,-288 898,-288 990,-288 990,-288 996,-288 1002,-294 1002,-300 1002,-300 1002,-312 1002,-312 1002,-318 996,-324 990,-324"/>
<text text-anchor="middle" x="944" y="-303.5" font-family="sans" font-size="10.00">predictContigsVirfinder</text>
</g>
<!-- 7&#45;&gt;12 -->
<g id="edge25" class="edge">
<title>7&#45;&gt;12</title>
<path fill="none" stroke="grey" stroke-width="2" d="M1008.3,-359.34C998.49,-351.36 986.71,-341.77 975.93,-332.99"/>
<polygon fill="grey" stroke="grey" stroke-width="2" points="978.31,-330.41 968.34,-326.81 973.89,-335.84 978.31,-330.41"/>
</g>
<!-- 8 -->
<g id="node9" class="node">
<title>8</title>
<path fill="none" stroke="#d88d56" stroke-width="2" d="M1059,-468C1059,-468 1001,-468 1001,-468 995,-468 989,-462 989,-456 989,-456 989,-444 989,-444 989,-438 995,-432 1001,-432 1001,-432 1059,-432 1059,-432 1065,-432 1071,-438 1071,-444 1071,-444 1071,-456 1071,-456 1071,-462 1065,-468 1059,-468"/>
<text text-anchor="middle" x="1030" y="-447.5" font-family="sans" font-size="10.00">dedupeContigs</text>
</g>
<!-- 8&#45;&gt;7 -->
<g id="edge20" class="edge">
<title>8&#45;&gt;7</title>
<path fill="none" stroke="grey" stroke-width="2" d="M1030,-431.34C1030,-424.75 1030,-417.08 1030,-409.67"/>
<polygon fill="grey" stroke="grey" stroke-width="2" points="1033.5,-409.93 1030,-399.93 1026.5,-409.93 1033.5,-409.93"/>
</g>
<!-- 9 -->
<g id="node10" class="node">
<title>9</title>
<path fill="none" stroke="#56b9d8" stroke-width="2" d="M1061.5,-540C1061.5,-540 998.5,-540 998.5,-540 992.5,-540 986.5,-534 986.5,-528 986.5,-528 986.5,-516 986.5,-516 986.5,-510 992.5,-504 998.5,-504 998.5,-504 1061.5,-504 1061.5,-504 1067.5,-504 1073.5,-510 1073.5,-516 1073.5,-516 1073.5,-528 1073.5,-528 1073.5,-534 1067.5,-540 1061.5,-540"/>
<text text-anchor="middle" x="1030" y="-519.5" font-family="sans" font-size="10.00">combineContigs</text>
</g>
<!-- 9&#45;&gt;8 -->
<g id="edge21" class="edge">
<title>9&#45;&gt;8</title>
<path fill="none" stroke="grey" stroke-width="2" d="M1030,-503.34C1030,-496.75 1030,-489.08 1030,-481.67"/>
<polygon fill="grey" stroke="grey" stroke-width="2" points="1033.5,-481.93 1030,-471.93 1026.5,-481.93 1033.5,-481.93"/>
</g>
<!-- 10&#45;&gt;6 -->
<g id="edge19" class="edge">
<title>10&#45;&gt;6</title>
<path fill="none" stroke="grey" stroke-width="2" d="M1094.3,-287.34C1084.49,-279.36 1072.71,-269.77 1061.93,-260.99"/>
<polygon fill="grey" stroke="grey" stroke-width="2" points="1064.31,-258.41 1054.34,-254.81 1059.89,-263.84 1064.31,-258.41"/>
</g>
<!-- 11 -->
<g id="node12" class="node">
<title>11</title>
<path fill="none" stroke="#d86e56" stroke-width="2" d="M1179.5,-396C1179.5,-396 1094.5,-396 1094.5,-396 1088.5,-396 1082.5,-390 1082.5,-384 1082.5,-384 1082.5,-372 1082.5,-372 1082.5,-366 1088.5,-360 1094.5,-360 1094.5,-360 1179.5,-360 1179.5,-360 1185.5,-360 1191.5,-366 1191.5,-372 1191.5,-372 1191.5,-384 1191.5,-384 1191.5,-390 1185.5,-396 1179.5,-396"/>
<text text-anchor="middle" x="1137" y="-375.5" font-family="sans" font-size="10.00">getVirsorterDatabase</text>
</g>
<!-- 11&#45;&gt;10 -->
<g id="edge23" class="edge">
<title>11&#45;&gt;10</title>
<path fill="none" stroke="grey" stroke-width="2" d="M1131.7,-359.34C1129.68,-352.59 1127.31,-344.69 1125.03,-337.11"/>
<polygon fill="grey" stroke="grey" stroke-width="2" points="1128.47,-336.37 1122.24,-327.8 1121.76,-338.39 1128.47,-336.37"/>
</g>
<!-- 12&#45;&gt;6 -->
<g id="edge18" class="edge">
<title>12&#45;&gt;6</title>
<path fill="none" stroke="grey" stroke-width="2" d="M965.7,-287.34C975.51,-279.36 987.29,-269.77 998.07,-260.99"/>
<polygon fill="grey" stroke="grey" stroke-width="2" points="1000.11,-263.84 1005.66,-254.81 995.69,-258.41 1000.11,-263.84"/>
</g>
<!-- 13 -->
<g id="node14" class="node">
<title>13</title>
<path fill="none" stroke="#d88556" stroke-width="2" d="M965,-396C965,-396 897,-396 897,-396 891,-396 885,-390 885,-384 885,-384 885,-372 885,-372 885,-366 891,-360 897,-360 897,-360 965,-360 965,-360 971,-360 977,-366 977,-372 977,-372 977,-384 977,-384 977,-390 971,-396 965,-396"/>
<text text-anchor="middle" x="931" y="-375.5" font-family="sans" font-size="10.00">getVirfinderModel</text>
</g>
<!-- 13&#45;&gt;12 -->
<g id="edge24" class="edge">
<title>13&#45;&gt;12</title>
<path fill="none" stroke="grey" stroke-width="2" d="M934.28,-359.34C935.5,-352.75 936.93,-345.08 938.3,-337.67"/>
<polygon fill="grey" stroke="grey" stroke-width="2" points="941.74,-338.35 940.12,-327.88 934.86,-337.07 941.74,-338.35"/>
</g>
<!-- 14 -->
<g id="node15" class="node">
<title>14</title>
<path fill="none" stroke="#56d86b" stroke-width="2" d="M968.5,-180C968.5,-180 855.5,-180 855.5,-180 849.5,-180 843.5,-174 843.5,-168 843.5,-168 843.5,-156 843.5,-156 843.5,-150 849.5,-144 855.5,-144 855.5,-144 968.5,-144 968.5,-144 974.5,-144 980.5,-150 980.5,-156 980.5,-156 980.5,-168 980.5,-168 980.5,-174 974.5,-180 968.5,-180"/>
<text text-anchor="middle" x="912" y="-159.5" font-family="sans" font-size="10.00">getClassificationDatabases</text>
</g>
<!-- 14&#45;&gt;25 -->
<g id="edge36" class="edge">
<title>14&#45;&gt;25</title>
<path fill="none" stroke="grey" stroke-width="2" d="M912,-143.34C912,-136.75 912,-129.08 912,-121.67"/>
<polygon fill="grey" stroke="grey" stroke-width="2" points="915.5,-121.93 912,-111.93 908.5,-121.93 915.5,-121.93"/>
</g>
<!-- 15&#45;&gt;0 -->
<g id="edge6" class="edge">
<title>15&#45;&gt;0</title>
<path fill="none" stroke="grey" stroke-width="2" d="M198,-143.2C215.63,-124.93 244.17,-95.89 270,-72 279.65,-63.08 290.44,-53.66 300.29,-45.28"/>
<polygon fill="grey" stroke="grey" stroke-width="2" points="302.42,-48.07 307.81,-38.94 297.91,-42.72 302.42,-48.07"/>
</g>
<!-- 16&#45;&gt;0 -->
<g id="edge7" class="edge">
<title>16&#45;&gt;0</title>
<path fill="none" stroke="grey" stroke-width="2" d="M375.61,-143.11C347.5,-133.06 317.99,-120.14 310,-108 298.23,-90.11 304.91,-66.45 313.89,-48.02"/>
<polygon fill="grey" stroke="grey" stroke-width="2" points="316.85,-49.9 318.52,-39.44 310.69,-46.57 316.85,-49.9"/>
</g>
<!-- 17 -->
<g id="node18" class="node">
<title>17</title>
<path fill="none" stroke="#a7d856" stroke-width="2" d="M174.5,-108C174.5,-108 123.5,-108 123.5,-108 117.5,-108 111.5,-102 111.5,-96 111.5,-96 111.5,-84 111.5,-84 111.5,-78 117.5,-72 123.5,-72 123.5,-72 174.5,-72 174.5,-72 180.5,-72 186.5,-78 186.5,-84 186.5,-84 186.5,-96 186.5,-96 186.5,-102 180.5,-108 174.5,-108"/>
<text text-anchor="middle" x="149" y="-87.5" font-family="sans" font-size="10.00">calcBinPCoA</text>
</g>
<!-- 17&#45;&gt;0 -->
<g id="edge1" class="edge">
<title>17&#45;&gt;0</title>
<path fill="none" stroke="grey" stroke-width="2" d="M187.36,-74.33C218.04,-62.59 260.91,-46.19 292,-34.3"/>
<polygon fill="grey" stroke="grey" stroke-width="2" points="293.21,-37.59 301.3,-30.74 290.71,-31.05 293.21,-37.59"/>
</g>
<!-- 18&#45;&gt;17 -->
<g id="edge30" class="edge">
<title>18&#45;&gt;17</title>
<path fill="none" stroke="grey" stroke-width="2" d="M77.97,-143.34C89.03,-135.19 102.35,-125.37 114.46,-116.45"/>
<polygon fill="grey" stroke="grey" stroke-width="2" points="116.29,-119.45 122.27,-110.7 112.14,-113.81 116.29,-119.45"/>
</g>
<!-- 19 -->
<g id="node20" class="node">
<title>19</title>
<path fill="none" stroke="#d8a456" stroke-width="2" d="M81.5,-108C81.5,-108 26.5,-108 26.5,-108 20.5,-108 14.5,-102 14.5,-96 14.5,-96 14.5,-84 14.5,-84 14.5,-78 20.5,-72 26.5,-72 26.5,-72 81.5,-72 81.5,-72 87.5,-72 93.5,-78 93.5,-84 93.5,-84 93.5,-96 93.5,-96 93.5,-102 87.5,-108 81.5,-108"/>
<text text-anchor="middle" x="54" y="-87.5" font-family="sans" font-size="10.00">calcBinNMDS</text>
</g>
<!-- 18&#45;&gt;19 -->
<g id="edge33" class="edge">
<title>18&#45;&gt;19</title>
<path fill="none" stroke="grey" stroke-width="2" d="M54,-143.34C54,-136.75 54,-129.08 54,-121.67"/>
<polygon fill="grey" stroke="grey" stroke-width="2" points="57.5,-121.93 54,-111.93 50.5,-121.93 57.5,-121.93"/>
</g>
<!-- 19&#45;&gt;0 -->
<g id="edge3" class="edge">
<title>19&#45;&gt;0</title>
<path fill="none" stroke="grey" stroke-width="2" d="M94.49,-74.3C97.02,-73.49 99.54,-72.72 102,-72 167.53,-52.91 245.15,-36.23 291.39,-26.9"/>
<polygon fill="grey" stroke="grey" stroke-width="2" points="292.03,-30.34 301.15,-24.95 290.66,-23.47 292.03,-30.34"/>
</g>
<!-- 20 -->
<g id="node21" class="node">
<title>20</title>
<path fill="none" stroke="#566bd8" stroke-width="2" d="M415,-108C415,-108 331,-108 331,-108 325,-108 319,-102 319,-96 319,-96 319,-84 319,-84 319,-78 325,-72 331,-72 331,-72 415,-72 415,-72 421,-72 427,-78 427,-84 427,-84 427,-96 427,-96 427,-102 421,-108 415,-108"/>
<text text-anchor="middle" x="373" y="-87.5" font-family="sans" font-size="10.00">combineRawReports</text>
</g>
<!-- 20&#45;&gt;0 -->
<g id="edge8" class="edge">
<title>20&#45;&gt;0</title>
<path fill="none" stroke="grey" stroke-width="2" d="M362.65,-71.34C358.51,-64.26 353.63,-55.92 348.99,-48"/>
<polygon fill="grey" stroke="grey" stroke-width="2" points="352.09,-46.37 344.02,-39.51 346.05,-49.91 352.09,-46.37"/>
</g>
<!-- 21 -->
<g id="node22" class="node">
<title>21</title>
<path fill="none" stroke="#56d87b" stroke-width="2" d="M559,-108C559,-108 457,-108 457,-108 451,-108 445,-102 445,-96 445,-96 445,-84 445,-84 445,-78 451,-72 457,-72 457,-72 559,-72 559,-72 565,-72 571,-78 571,-84 571,-84 571,-96 571,-96 571,-102 565,-108 559,-108"/>
<text text-anchor="middle" x="508" y="-87.5" font-family="sans" font-size="10.00">combineTrimmedReports</text>
</g>
<!-- 21&#45;&gt;0 -->
<g id="edge4" class="edge">
<title>21&#45;&gt;0</title>
<path fill="none" stroke="grey" stroke-width="2" d="M463.13,-71.15C434.87,-59.91 398.72,-45.54 371.54,-34.73"/>
<polygon fill="grey" stroke="grey" stroke-width="2" points="373.14,-31.6 362.55,-31.15 370.55,-38.1 373.14,-31.6"/>
</g>
<!-- 22 -->
<g id="node23" class="node">
<title>22</title>
<path fill="none" stroke="#78d856" stroke-width="2" d="M693,-108C693,-108 601,-108 601,-108 595,-108 589,-102 589,-96 589,-96 589,-84 589,-84 589,-78 595,-72 601,-72 601,-72 693,-72 693,-72 699,-72 705,-78 705,-84 705,-84 705,-96 705,-96 705,-102 699,-108 693,-108"/>
<text text-anchor="middle" x="647" y="-87.5" font-family="sans" font-size="10.00">combineDeconReports</text>
</g>
<!-- 22&#45;&gt;0 -->
<g id="edge10" class="edge">
<title>22&#45;&gt;0</title>
<path fill="none" stroke="grey" stroke-width="2" d="M588.2,-73.95C585.43,-73.28 582.69,-72.63 580,-72 507.15,-54.98 421.75,-37.2 372.55,-27.17"/>
<polygon fill="grey" stroke="grey" stroke-width="2" points="373.43,-23.78 362.94,-25.22 372.04,-30.64 373.43,-23.78"/>
</g>
<!-- 23 -->
<g id="node24" class="node">
<title>23</title>
<path fill="none" stroke="#56d882" stroke-width="2" d="M842.5,-108C842.5,-108 735.5,-108 735.5,-108 729.5,-108 723.5,-102 723.5,-96 723.5,-96 723.5,-84 723.5,-84 723.5,-78 729.5,-72 735.5,-72 735.5,-72 842.5,-72 842.5,-72 848.5,-72 854.5,-78 854.5,-84 854.5,-84 854.5,-96 854.5,-96 854.5,-102 848.5,-108 842.5,-108"/>
<text text-anchor="middle" x="789" y="-87.5" font-family="sans" font-size="10.00">combineAssemblyReports</text>
</g>
<!-- 23&#45;&gt;0 -->
<g id="edge5" class="edge">
<title>23&#45;&gt;0</title>
<path fill="none" stroke="grey" stroke-width="2" d="M722.81,-73.68C719.84,-73.09 716.89,-72.53 714,-72 590.24,-49.43 442.37,-31.44 372.45,-23.47"/>
<polygon fill="grey" stroke="grey" stroke-width="2" points="373.27,-20.04 362.94,-22.39 372.48,-26.99 373.27,-20.04"/>
</g>
<!-- 24 -->
<g id="node25" class="node">
<title>24</title>
<path fill="none" stroke="#bed856" stroke-width="2" d="M813,-180C813,-180 755,-180 755,-180 749,-180 743,-174 743,-168 743,-168 743,-156 743,-156 743,-150 749,-144 755,-144 755,-144 813,-144 813,-144 819,-144 825,-150 825,-156 825,-156 825,-168 825,-168 825,-174 819,-180 813,-180"/>
<text text-anchor="middle" x="784" y="-159.5" font-family="sans" font-size="10.00">assemblyStats</text>
</g>
<!-- 24&#45;&gt;23 -->
<g id="edge34" class="edge">
<title>24&#45;&gt;23</title>
<path fill="none" stroke="grey" stroke-width="2" d="M785.26,-143.34C785.73,-136.75 786.28,-129.08 786.81,-121.67"/>
<polygon fill="grey" stroke="grey" stroke-width="2" points="790.28,-122.15 787.51,-111.92 783.3,-121.65 790.28,-122.15"/>
</g>
<!-- 25&#45;&gt;0 -->
<g id="edge2" class="edge">
<title>25&#45;&gt;0</title>
<path fill="none" stroke="grey" stroke-width="2" d="M876.1,-75.24C872.06,-74 867.97,-72.89 864,-72 683.89,-31.75 462.64,-22.05 372.8,-19.73"/>
<polygon fill="grey" stroke="grey" stroke-width="2" points="372.89,-16.23 362.81,-19.49 372.72,-23.23 372.89,-16.23"/>
</g>
</g>
</svg>
