<?xml version="1.0" encoding="UTF-8" standalone="no"?>
<!DOCTYPE svg PUBLIC "-//W3C//DTD SVG 1.1//EN"
 "http://www.w3.org/Graphics/SVG/1.1/DTD/svg11.dtd">
<!-- Generated by graphviz version 6.0.1 (0)
 -->
<!-- Title: snakemake_dag Pages: 1 -->
<svg width="208pt" height="188pt"
 viewBox="0.00 0.00 207.50 188.00" xmlns="http://www.w3.org/2000/svg" xmlns:xlink="http://www.w3.org/1999/xlink">
<g id="graph0" class="graph" transform="scale(1 1) rotate(0) translate(4 184)">
<title>snakemake_dag</title>
<polygon fill="white" stroke="none" points="-4,4 -4,-184 203.5,-184 203.5,4 -4,4"/>
<!-- 0 -->
<g id="node1" class="node">
<title>0</title>
<path fill="none" stroke="#78d856" stroke-width="2" d="M116.5,-36C116.5,-36 86.5,-36 86.5,-36 80.5,-36 74.5,-30 74.5,-24 74.5,-24 74.5,-12 74.5,-12 74.5,-6 80.5,0 86.5,0 86.5,0 116.5,0 116.5,0 122.5,0 128.5,-6 128.5,-12 128.5,-12 128.5,-24 128.5,-24 128.5,-30 122.5,-36 116.5,-36"/>
<text text-anchor="middle" x="101.5" y="-15.5" font-family="sans" font-size="10.00">all</text>
</g>
<!-- 1 -->
<g id="node2" class="node">
<title>1</title>
<path fill="none" stroke="#d8a456" stroke-width="2" d="M83,-108C83,-108 12,-108 12,-108 6,-108 0,-102 0,-96 0,-96 0,-84 0,-84 0,-78 6,-72 12,-72 12,-72 83,-72 83,-72 89,-72 95,-78 95,-84 95,-84 95,-96 95,-96 95,-102 89,-108 83,-108"/>
<text text-anchor="middle" x="47.5" y="-87.5" font-family="sans" font-size="10.00">qiime2R_heatmap</text>
</g>
<!-- 1&#45;&gt;0 -->
<g id="edge2" class="edge">
<title>1&#45;&gt;0</title>
<path fill="none" stroke="grey" stroke-width="2" d="M60.85,-71.7C67.26,-63.39 75.06,-53.28 82.11,-44.14"/>
<polygon fill="grey" stroke="grey" stroke-width="2" points="84.97,-46.16 88.31,-36.1 79.43,-41.88 84.97,-46.16"/>
</g>
<!-- 2 -->
<g id="node3" class="node">
<title>2</title>
<path fill="none" stroke="#56d87b" stroke-width="2" d="M132.5,-180C132.5,-180 70.5,-180 70.5,-180 64.5,-180 58.5,-174 58.5,-168 58.5,-168 58.5,-156 58.5,-156 58.5,-150 64.5,-144 70.5,-144 70.5,-144 132.5,-144 132.5,-144 138.5,-144 144.5,-150 144.5,-156 144.5,-156 144.5,-168 144.5,-168 144.5,-174 138.5,-180 132.5,-180"/>
<text text-anchor="middle" x="101.5" y="-159.5" font-family="sans" font-size="10.00">processed_data</text>
</g>
<!-- 2&#45;&gt;1 -->
<g id="edge3" class="edge">
<title>2&#45;&gt;1</title>
<path fill="none" stroke="grey" stroke-width="2" d="M88.15,-143.7C81.74,-135.39 73.94,-125.28 66.89,-116.14"/>
<polygon fill="grey" stroke="grey" stroke-width="2" points="69.57,-113.88 60.69,-108.1 64.03,-118.16 69.57,-113.88"/>
</g>
<!-- 3 -->
<g id="node4" class="node">
<title>3</title>
<path fill="none" stroke="#d85656" stroke-width="2" d="M187.5,-108C187.5,-108 125.5,-108 125.5,-108 119.5,-108 113.5,-102 113.5,-96 113.5,-96 113.5,-84 113.5,-84 113.5,-78 119.5,-72 125.5,-72 125.5,-72 187.5,-72 187.5,-72 193.5,-72 199.5,-78 199.5,-84 199.5,-84 199.5,-96 199.5,-96 199.5,-102 193.5,-108 187.5,-108"/>
<text text-anchor="middle" x="156.5" y="-87.5" font-family="sans" font-size="10.00">ggplot_heatmap</text>
</g>
<!-- 2&#45;&gt;3 -->
<g id="edge4" class="edge">
<title>2&#45;&gt;3</title>
<path fill="none" stroke="grey" stroke-width="2" d="M115.1,-143.7C121.62,-135.39 129.57,-125.28 136.75,-116.14"/>
<polygon fill="grey" stroke="grey" stroke-width="2" points="139.63,-118.13 143.06,-108.1 134.13,-113.81 139.63,-118.13"/>
</g>
<!-- 3&#45;&gt;0 -->
<g id="edge1" class="edge">
<title>3&#45;&gt;0</title>
<path fill="none" stroke="grey" stroke-width="2" d="M142.9,-71.7C136.38,-63.39 128.43,-53.28 121.25,-44.14"/>
<polygon fill="grey" stroke="grey" stroke-width="2" points="123.87,-41.81 114.94,-36.1 118.37,-46.13 123.87,-41.81"/>
</g>
</g>
</svg>
