<?xml version="1.0" encoding="UTF-8" standalone="no"?>
<!DOCTYPE svg PUBLIC "-//W3C//DTD SVG 1.1//EN"
 "http://www.w3.org/Graphics/SVG/1.1/DTD/svg11.dtd">
<!-- Generated by graphviz version 6.0.1 (0)
 -->
<!-- Title: snakemake_dag Pages: 1 -->
<svg width="1108pt" height="620pt"
 viewBox="0.00 0.00 1108.11 620.00" xmlns="http://www.w3.org/2000/svg" xmlns:xlink="http://www.w3.org/1999/xlink">
<g id="graph0" class="graph" transform="scale(1 1) rotate(0) translate(4 616)">
<title>snakemake_dag</title>
<polygon fill="white" stroke="none" points="-4,4 -4,-616 1104.11,-616 1104.11,4 -4,4"/>
<!-- 0 -->
<g id="node1" class="node">
<title>0</title>
<path fill="none" stroke="#d87d56" stroke-width="2" d="M626,-36C626,-36 596,-36 596,-36 590,-36 584,-30 584,-24 584,-24 584,-12 584,-12 584,-6 590,0 596,0 596,0 626,0 626,0 632,0 638,-6 638,-12 638,-12 638,-24 638,-24 638,-30 632,-36 626,-36"/>
<text text-anchor="middle" x="611" y="-15.5" font-family="sans" font-size="10.00">all</text>
</g>
<!-- 1 -->
<g id="node2" class="node">
<title>1</title>
<path fill="none" stroke="#56b9d8" stroke-width="2" d="M252,-108C252,-108 154,-108 154,-108 148,-108 142,-102 142,-96 142,-96 142,-84 142,-84 142,-78 148,-72 154,-72 154,-72 252,-72 252,-72 258,-72 264,-78 264,-84 264,-84 264,-96 264,-96 264,-102 258,-108 252,-108"/>
<text text-anchor="middle" x="203" y="-87.5" font-family="sans" font-size="10.00">deploy_to_github_pages</text>
</g>
<!-- 1&#45;&gt;0 -->
<g id="edge3" class="edge">
<title>1&#45;&gt;0</title>
<path fill="none" stroke="grey" stroke-width="2" d="M264.08,-78.52C349.72,-63.83 502.88,-37.55 573.48,-25.44"/>
<polygon fill="grey" stroke="grey" stroke-width="2" points="574.41,-28.83 583.67,-23.69 573.23,-21.93 574.41,-28.83"/>
</g>
<!-- 2 -->
<g id="node3" class="node">
<title>2</title>
<path fill="none" stroke="#8fd856" stroke-width="2" d="M82,-180C82,-180 12,-180 12,-180 6,-180 0,-174 0,-168 0,-168 0,-156 0,-156 0,-150 6,-144 12,-144 12,-144 82,-144 82,-144 88,-144 94,-150 94,-156 94,-156 94,-168 94,-168 94,-174 88,-180 82,-180"/>
<text text-anchor="middle" x="47" y="-159.5" font-family="sans" font-size="10.00">get_dot_rulegraph</text>
</g>
<!-- 2&#45;&gt;1 -->
<g id="edge14" class="edge">
<title>2&#45;&gt;1</title>
<path fill="none" stroke="grey" stroke-width="2" d="M85.16,-143.88C106.39,-134.35 133.01,-122.41 155.57,-112.28"/>
<polygon fill="grey" stroke="grey" stroke-width="2" points="157.27,-115.36 164.96,-108.07 154.41,-108.97 157.27,-115.36"/>
</g>
<!-- 3 -->
<g id="node4" class="node">
<title>3</title>
<path fill="none" stroke="#5692d8" stroke-width="2" d="M168,-180C168,-180 124,-180 124,-180 118,-180 112,-174 112,-168 112,-168 112,-156 112,-156 112,-150 118,-144 124,-144 124,-144 168,-144 168,-144 174,-144 180,-150 180,-156 180,-156 180,-168 180,-168 180,-174 174,-180 168,-180"/>
<text text-anchor="middle" x="146" y="-159.5" font-family="sans" font-size="10.00">project_tree</text>
</g>
<!-- 3&#45;&gt;1 -->
<g id="edge13" class="edge">
<title>3&#45;&gt;1</title>
<path fill="none" stroke="grey" stroke-width="2" d="M160.09,-143.7C166.92,-135.3 175.26,-125.07 182.76,-115.86"/>
<polygon fill="grey" stroke="grey" stroke-width="2" points="185.47,-118.07 189.07,-108.1 180.04,-113.65 185.47,-118.07"/>
</g>
<!-- 4 -->
<g id="node5" class="node">
<title>4</title>
<path fill="none" stroke="#56d8d0" stroke-width="2" d="M307.5,-180C307.5,-180 210.5,-180 210.5,-180 204.5,-180 198.5,-174 198.5,-168 198.5,-168 198.5,-156 198.5,-156 198.5,-150 204.5,-144 210.5,-144 210.5,-144 307.5,-144 307.5,-144 313.5,-144 319.5,-150 319.5,-156 319.5,-156 319.5,-168 319.5,-168 319.5,-174 313.5,-180 307.5,-180"/>
<text text-anchor="middle" x="259" y="-159.5" font-family="sans" font-size="10.00">snakemake_html_report</text>
</g>
<!-- 4&#45;&gt;1 -->
<g id="edge15" class="edge">
<title>4&#45;&gt;1</title>
<path fill="none" stroke="grey" stroke-width="2" d="M245.16,-143.7C238.51,-135.39 230.42,-125.28 223.11,-116.14"/>
<polygon fill="grey" stroke="grey" stroke-width="2" points="225.66,-113.73 216.68,-108.1 220.2,-118.1 225.66,-113.73"/>
</g>
<!-- 5 -->
<g id="node6" class="node">
<title>5</title>
<path fill="none" stroke="#566bd8" stroke-width="2" d="M488.5,-324C488.5,-324 379.5,-324 379.5,-324 373.5,-324 367.5,-318 367.5,-312 367.5,-312 367.5,-300 367.5,-300 367.5,-294 373.5,-288 379.5,-288 379.5,-288 488.5,-288 488.5,-288 494.5,-288 500.5,-294 500.5,-300 500.5,-300 500.5,-312 500.5,-312 500.5,-318 494.5,-324 488.5,-324"/>
<text text-anchor="middle" x="434" y="-303.5" font-family="sans" font-size="10.00">mothur_classify_phylotype</text>
</g>
<!-- 5&#45;&gt;0 -->
<g id="edge9" class="edge">
<title>5&#45;&gt;0</title>
<path fill="none" stroke="grey" stroke-width="2" d="M428.67,-287.88C416.81,-246.09 393.02,-137.49 443,-72 473.57,-31.94 534.39,-21.49 573.85,-19.13"/>
<polygon fill="grey" stroke="grey" stroke-width="2" points="574.05,-22.63 583.88,-18.68 573.73,-15.63 574.05,-22.63"/>
</g>
<!-- 6 -->
<g id="node7" class="node">
<title>6</title>
<path fill="none" stroke="#ced856" stroke-width="2" d="M635,-396C635,-396 513,-396 513,-396 507,-396 501,-390 501,-384 501,-384 501,-372 501,-372 501,-366 507,-360 513,-360 513,-360 635,-360 635,-360 641,-360 647,-366 647,-372 647,-372 647,-384 647,-384 647,-390 641,-396 635,-396"/>
<text text-anchor="middle" x="574" y="-375.5" font-family="sans" font-size="10.00">mothur_final_processed_seqs</text>
</g>
<!-- 6&#45;&gt;5 -->
<g id="edge16" class="edge">
<title>6&#45;&gt;5</title>
<path fill="none" stroke="grey" stroke-width="2" d="M539.75,-359.88C520.94,-350.47 497.42,-338.71 477.33,-328.67"/>
<polygon fill="grey" stroke="grey" stroke-width="2" points="478.89,-325.53 468.38,-324.19 475.76,-331.79 478.89,-325.53"/>
</g>
<!-- 12 -->
<g id="node13" class="node">
<title>12</title>
<path fill="none" stroke="#56d8b9" stroke-width="2" d="M916,-252C916,-252 828,-252 828,-252 822,-252 816,-246 816,-240 816,-240 816,-228 816,-228 816,-222 822,-216 828,-216 828,-216 916,-216 916,-216 922,-216 928,-222 928,-228 928,-228 928,-240 928,-240 928,-246 922,-252 916,-252"/>
<text text-anchor="middle" x="872" y="-231.5" font-family="sans" font-size="10.00">mothur_classify_asvs</text>
</g>
<!-- 6&#45;&gt;12 -->
<g id="edge22" class="edge">
<title>6&#45;&gt;12</title>
<path fill="none" stroke="grey" stroke-width="2" d="M595.34,-359.92C607.93,-349.7 624.07,-336.34 638,-324 655.41,-308.57 655.71,-299.38 676,-288 716.16,-265.47 766.37,-252.13 805.91,-244.47"/>
<polygon fill="grey" stroke="grey" stroke-width="2" points="806.79,-247.87 815.98,-242.6 805.51,-240.99 806.79,-247.87"/>
</g>
<!-- 13 -->
<g id="node14" class="node">
<title>13</title>
<path fill="none" stroke="#d89556" stroke-width="2" d="M393.5,-252C393.5,-252 282.5,-252 282.5,-252 276.5,-252 270.5,-246 270.5,-240 270.5,-240 270.5,-228 270.5,-228 270.5,-222 276.5,-216 282.5,-216 282.5,-216 393.5,-216 393.5,-216 399.5,-216 405.5,-222 405.5,-228 405.5,-228 405.5,-240 405.5,-240 405.5,-246 399.5,-252 393.5,-252"/>
<text text-anchor="middle" x="338" y="-231.5" font-family="sans" font-size="10.00">mothur_classify_phylogeny</text>
</g>
<!-- 6&#45;&gt;13 -->
<g id="edge23" class="edge">
<title>6&#45;&gt;13</title>
<path fill="none" stroke="grey" stroke-width="2" d="M500.96,-367.42C446.37,-358.78 377.9,-344.3 358,-324 342.19,-307.88 337.79,-282.1 336.99,-262.43"/>
<polygon fill="grey" stroke="grey" stroke-width="2" points="340.49,-262.19 336.87,-252.23 333.49,-262.27 340.49,-262.19"/>
</g>
<!-- 14 -->
<g id="node15" class="node">
<title>14</title>
<path fill="none" stroke="#56a9d8" stroke-width="2" d="M766.5,-324C766.5,-324 697.5,-324 697.5,-324 691.5,-324 685.5,-318 685.5,-312 685.5,-312 685.5,-300 685.5,-300 685.5,-294 691.5,-288 697.5,-288 697.5,-288 766.5,-288 766.5,-288 772.5,-288 778.5,-294 778.5,-300 778.5,-300 778.5,-312 778.5,-312 778.5,-318 772.5,-324 766.5,-324"/>
<text text-anchor="middle" x="732" y="-303.5" font-family="sans" font-size="10.00">mothur_error_rate</text>
</g>
<!-- 6&#45;&gt;14 -->
<g id="edge25" class="edge">
<title>6&#45;&gt;14</title>
<path fill="none" stroke="grey" stroke-width="2" d="M612.65,-359.88C634.25,-350.31 661.35,-338.3 684.27,-328.15"/>
<polygon fill="grey" stroke="grey" stroke-width="2" points="685.75,-331.32 693.47,-324.07 682.91,-324.92 685.75,-331.32"/>
</g>
<!-- 18 -->
<g id="node19" class="node">
<title>18</title>
<path fill="none" stroke="#d86e56" stroke-width="2" d="M617,-324C617,-324 531,-324 531,-324 525,-324 519,-318 519,-312 519,-312 519,-300 519,-300 519,-294 525,-288 531,-288 531,-288 617,-288 617,-288 623,-288 629,-294 629,-300 629,-300 629,-312 629,-312 629,-318 623,-324 617,-324"/>
<text text-anchor="middle" x="574" y="-303.5" font-family="sans" font-size="10.00">mothur_classify_otus</text>
</g>
<!-- 6&#45;&gt;18 -->
<g id="edge29" class="edge">
<title>6&#45;&gt;18</title>
<path fill="none" stroke="grey" stroke-width="2" d="M574,-359.7C574,-351.98 574,-342.71 574,-334.11"/>
<polygon fill="grey" stroke="grey" stroke-width="2" points="577.5,-334.1 574,-324.1 570.5,-334.1 577.5,-334.1"/>
</g>
<!-- 7 -->
<g id="node8" class="node">
<title>7</title>
<path fill="none" stroke="#567bd8" stroke-width="2" d="M631.5,-468C631.5,-468 516.5,-468 516.5,-468 510.5,-468 504.5,-462 504.5,-456 504.5,-456 504.5,-444 504.5,-444 504.5,-438 510.5,-432 516.5,-432 516.5,-432 631.5,-432 631.5,-432 637.5,-432 643.5,-438 643.5,-444 643.5,-444 643.5,-456 643.5,-456 643.5,-462 637.5,-468 631.5,-468"/>
<text text-anchor="middle" x="574" y="-447.5" font-family="sans" font-size="10.00">mothur_process_sequences</text>
</g>
<!-- 7&#45;&gt;6 -->
<g id="edge17" class="edge">
<title>7&#45;&gt;6</title>
<path fill="none" stroke="grey" stroke-width="2" d="M574,-431.7C574,-423.98 574,-414.71 574,-406.11"/>
<polygon fill="grey" stroke="grey" stroke-width="2" points="577.5,-406.1 574,-396.1 570.5,-406.1 577.5,-406.1"/>
</g>
<!-- 25 -->
<g id="node26" class="node">
<title>25</title>
<path fill="none" stroke="#a7d856" stroke-width="2" d="M240.5,-252C240.5,-252 133.5,-252 133.5,-252 127.5,-252 121.5,-246 121.5,-240 121.5,-240 121.5,-228 121.5,-228 121.5,-222 127.5,-216 133.5,-216 133.5,-216 240.5,-216 240.5,-216 246.5,-216 252.5,-222 252.5,-228 252.5,-228 252.5,-240 252.5,-240 252.5,-246 246.5,-252 240.5,-252"/>
<text text-anchor="middle" x="187" y="-231.5" font-family="sans" font-size="10.00">remove_intermediate_files</text>
</g>
<!-- 7&#45;&gt;25 -->
<g id="edge36" class="edge">
<title>7&#45;&gt;25</title>
<path fill="none" stroke="grey" stroke-width="2" d="M540.35,-431.93C494.15,-408.33 408.64,-364.11 337,-324 297.97,-302.15 254.04,-275.88 223.86,-257.57"/>
<polygon fill="grey" stroke="grey" stroke-width="2" points="225.32,-254.36 214.95,-252.16 221.68,-260.34 225.32,-254.36"/>
</g>
<!-- 8 -->
<g id="node9" class="node">
<title>8</title>
<path fill="none" stroke="#d8a456" stroke-width="2" d="M478.5,-540C478.5,-540 377.5,-540 377.5,-540 371.5,-540 365.5,-534 365.5,-528 365.5,-528 365.5,-516 365.5,-516 365.5,-510 371.5,-504 377.5,-504 377.5,-504 478.5,-504 478.5,-504 484.5,-504 490.5,-510 490.5,-516 490.5,-516 490.5,-528 490.5,-528 490.5,-534 484.5,-540 478.5,-540"/>
<text text-anchor="middle" x="428" y="-519.5" font-family="sans" font-size="10.00">import_mothur_metadata</text>
</g>
<!-- 8&#45;&gt;7 -->
<g id="edge18" class="edge">
<title>8&#45;&gt;7</title>
<path fill="none" stroke="grey" stroke-width="2" d="M463.72,-503.88C483.5,-494.39 508.27,-482.51 529.33,-472.42"/>
<polygon fill="grey" stroke="grey" stroke-width="2" points="530.9,-475.55 538.4,-468.07 527.87,-469.24 530.9,-475.55"/>
</g>
<!-- 9 -->
<g id="node10" class="node">
<title>9</title>
<path fill="none" stroke="#56d87b" stroke-width="2" d="M633.5,-540C633.5,-540 520.5,-540 520.5,-540 514.5,-540 508.5,-534 508.5,-528 508.5,-528 508.5,-516 508.5,-516 508.5,-510 514.5,-504 520.5,-504 520.5,-504 633.5,-504 633.5,-504 639.5,-504 645.5,-510 645.5,-516 645.5,-516 645.5,-528 645.5,-528 645.5,-534 639.5,-540 633.5,-540"/>
<text text-anchor="middle" x="577" y="-519.5" font-family="sans" font-size="10.00">mothur_generated_mapping</text>
</g>
<!-- 9&#45;&gt;7 -->
<g id="edge20" class="edge">
<title>9&#45;&gt;7</title>
<path fill="none" stroke="grey" stroke-width="2" d="M576.26,-503.7C575.93,-495.98 575.53,-486.71 575.16,-478.11"/>
<polygon fill="grey" stroke="grey" stroke-width="2" points="578.66,-477.95 574.73,-468.1 571.66,-478.25 578.66,-477.95"/>
</g>
<!-- 10 -->
<g id="node11" class="node">
<title>10</title>
<path fill="none" stroke="#d85656" stroke-width="2" d="M615,-612C615,-612 539,-612 539,-612 533,-612 527,-606 527,-600 527,-600 527,-588 527,-588 527,-582 533,-576 539,-576 539,-576 615,-576 615,-576 621,-576 627,-582 627,-588 627,-588 627,-600 627,-600 627,-606 621,-612 615,-612"/>
<text text-anchor="middle" x="577" y="-591.5" font-family="sans" font-size="10.00">import_fastq_reads</text>
</g>
<!-- 10&#45;&gt;9 -->
<g id="edge21" class="edge">
<title>10&#45;&gt;9</title>
<path fill="none" stroke="grey" stroke-width="2" d="M577,-575.7C577,-567.98 577,-558.71 577,-550.11"/>
<polygon fill="grey" stroke="grey" stroke-width="2" points="580.5,-550.1 577,-540.1 573.5,-550.1 580.5,-550.1"/>
</g>
<!-- 11 -->
<g id="node12" class="node">
<title>11</title>
<path fill="none" stroke="#d8cb56" stroke-width="2" d="M769.5,-540C769.5,-540 678.5,-540 678.5,-540 672.5,-540 666.5,-534 666.5,-528 666.5,-528 666.5,-516 666.5,-516 666.5,-510 672.5,-504 678.5,-504 678.5,-504 769.5,-504 769.5,-504 775.5,-504 781.5,-510 781.5,-516 781.5,-516 781.5,-528 781.5,-528 781.5,-534 775.5,-540 769.5,-540"/>
<text text-anchor="middle" x="724" y="-519.5" font-family="sans" font-size="10.00">download_mothur_refs</text>
</g>
<!-- 11&#45;&gt;7 -->
<g id="edge19" class="edge">
<title>11&#45;&gt;7</title>
<path fill="none" stroke="grey" stroke-width="2" d="M687.31,-503.88C666.98,-494.39 641.53,-482.51 619.9,-472.42"/>
<polygon fill="grey" stroke="grey" stroke-width="2" points="621.12,-469.13 610.57,-468.07 618.16,-475.47 621.12,-469.13"/>
</g>
<!-- 15 -->
<g id="node16" class="node">
<title>15</title>
<path fill="none" stroke="#68d856" stroke-width="2" d="M776,-468C776,-468 676,-468 676,-468 670,-468 664,-462 664,-456 664,-456 664,-444 664,-444 664,-438 670,-432 676,-432 676,-432 776,-432 776,-432 782,-432 788,-438 788,-444 788,-444 788,-456 788,-456 788,-462 782,-468 776,-468"/>
<text text-anchor="middle" x="726" y="-447.5" font-family="sans" font-size="10.00">get_mothur_zymo_mock</text>
</g>
<!-- 11&#45;&gt;15 -->
<g id="edge26" class="edge">
<title>11&#45;&gt;15</title>
<path fill="none" stroke="grey" stroke-width="2" d="M724.49,-503.7C724.71,-495.98 724.98,-486.71 725.23,-478.11"/>
<polygon fill="grey" stroke="grey" stroke-width="2" points="728.72,-478.2 725.51,-468.1 721.73,-478 728.72,-478.2"/>
</g>
<!-- 12&#45;&gt;0 -->
<g id="edge12" class="edge">
<title>12&#45;&gt;0</title>
<path fill="none" stroke="grey" stroke-width="2" d="M923.02,-215.9C996.91,-188.54 1119.33,-131.9 1066,-72 1038.33,-40.92 751.74,-25.23 648.12,-20.54"/>
<polygon fill="grey" stroke="grey" stroke-width="2" points="648.26,-17.05 638.11,-20.1 647.95,-24.04 648.26,-17.05"/>
</g>
<!-- 13&#45;&gt;0 -->
<g id="edge5" class="edge">
<title>13&#45;&gt;0</title>
<path fill="none" stroke="grey" stroke-width="2" d="M345.81,-215.83C350.52,-205.46 356.63,-191.98 362,-180 383.5,-132.07 370,-106.05 410,-72 456.59,-32.35 529.61,-21.97 573.64,-19.48"/>
<polygon fill="grey" stroke="grey" stroke-width="2" points="574.07,-22.97 583.9,-19.02 573.75,-15.97 574.07,-22.97"/>
</g>
<!-- 14&#45;&gt;0 -->
<g id="edge4" class="edge">
<title>14&#45;&gt;0</title>
<path fill="none" stroke="grey" stroke-width="2" d="M778.72,-298.86C846.69,-287.49 972.59,-256.89 1045,-180 1080.31,-142.51 1121.34,-110.38 1087,-72 1057.82,-39.39 754.82,-24.58 648.01,-20.34"/>
<polygon fill="grey" stroke="grey" stroke-width="2" points="648.14,-16.84 638.01,-19.95 647.87,-23.84 648.14,-16.84"/>
</g>
<!-- 15&#45;&gt;14 -->
<g id="edge24" class="edge">
<title>15&#45;&gt;14</title>
<path fill="none" stroke="grey" stroke-width="2" d="M726.72,-431.87C727.75,-407.67 729.62,-363.21 730.84,-334.39"/>
<polygon fill="grey" stroke="grey" stroke-width="2" points="734.35,-334.33 731.27,-324.19 727.35,-334.03 734.35,-334.33"/>
</g>
<!-- 16 -->
<g id="node17" class="node">
<title>16</title>
<path fill="none" stroke="#d8bc56" stroke-width="2" d="M534,-108C534,-108 464,-108 464,-108 458,-108 452,-102 452,-96 452,-96 452,-84 452,-84 452,-78 458,-72 464,-72 464,-72 534,-72 534,-72 540,-72 546,-78 546,-84 546,-84 546,-96 546,-96 546,-102 540,-108 534,-108"/>
<text text-anchor="middle" x="499" y="-87.5" font-family="sans" font-size="10.00">group_read_count</text>
</g>
<!-- 16&#45;&gt;0 -->
<g id="edge10" class="edge">
<title>16&#45;&gt;0</title>
<path fill="none" stroke="grey" stroke-width="2" d="M526.4,-71.88C541.15,-62.66 559.53,-51.17 575.38,-41.26"/>
<polygon fill="grey" stroke="grey" stroke-width="2" points="577.26,-44.22 583.88,-35.95 573.55,-38.28 577.26,-44.22"/>
</g>
<!-- 17 -->
<g id="node18" class="node">
<title>17</title>
<path fill="none" stroke="#56d892" stroke-width="2" d="M617,-252C617,-252 531,-252 531,-252 525,-252 519,-246 519,-240 519,-240 519,-228 519,-228 519,-222 525,-216 531,-216 531,-216 617,-216 617,-216 623,-216 629,-222 629,-228 629,-228 629,-240 629,-240 629,-246 623,-252 617,-252"/>
<text text-anchor="middle" x="574" y="-231.5" font-family="sans" font-size="10.00">mothur_final_otutable</text>
</g>
<!-- 17&#45;&gt;16 -->
<g id="edge27" class="edge">
<title>17&#45;&gt;16</title>
<path fill="none" stroke="grey" stroke-width="2" d="M552.53,-215.89C541.91,-206.37 529.74,-193.69 522,-180 511.17,-160.84 505.33,-136.49 502.25,-118.1"/>
<polygon fill="grey" stroke="grey" stroke-width="2" points="505.69,-117.42 500.74,-108.05 498.77,-118.46 505.69,-117.42"/>
</g>
<!-- 19 -->
<g id="node20" class="node">
<title>19</title>
<path fill="none" stroke="#59d856" stroke-width="2" d="M605,-180C605,-180 543,-180 543,-180 537,-180 531,-174 531,-168 531,-168 531,-156 531,-156 531,-150 537,-144 543,-144 543,-144 605,-144 605,-144 611,-144 617,-150 617,-156 617,-156 617,-168 617,-168 617,-174 611,-180 605,-180"/>
<text text-anchor="middle" x="574" y="-159.5" font-family="sans" font-size="10.00">read_rarefaction</text>
</g>
<!-- 17&#45;&gt;19 -->
<g id="edge30" class="edge">
<title>17&#45;&gt;19</title>
<path fill="none" stroke="grey" stroke-width="2" d="M574,-215.7C574,-207.98 574,-198.71 574,-190.11"/>
<polygon fill="grey" stroke="grey" stroke-width="2" points="577.5,-190.1 574,-180.1 570.5,-190.1 577.5,-190.1"/>
</g>
<!-- 21 -->
<g id="node22" class="node">
<title>21</title>
<path fill="none" stroke="#80d856" stroke-width="2" d="M791,-180C791,-180 711,-180 711,-180 705,-180 699,-174 699,-168 699,-168 699,-156 699,-156 699,-150 705,-144 711,-144 711,-144 791,-144 791,-144 797,-144 803,-150 803,-156 803,-156 803,-168 803,-168 803,-174 797,-180 791,-180"/>
<text text-anchor="middle" x="751" y="-159.5" font-family="sans" font-size="10.00">subsample_otutable</text>
</g>
<!-- 17&#45;&gt;21 -->
<g id="edge32" class="edge">
<title>17&#45;&gt;21</title>
<path fill="none" stroke="grey" stroke-width="2" d="M617.3,-215.88C641.71,-206.22 672.4,-194.09 698.21,-183.88"/>
<polygon fill="grey" stroke="grey" stroke-width="2" points="699.83,-187 707.84,-180.07 697.26,-180.49 699.83,-187"/>
</g>
<!-- 18&#45;&gt;17 -->
<g id="edge28" class="edge">
<title>18&#45;&gt;17</title>
<path fill="none" stroke="grey" stroke-width="2" d="M574,-287.7C574,-279.98 574,-270.71 574,-262.11"/>
<polygon fill="grey" stroke="grey" stroke-width="2" points="577.5,-262.1 574,-252.1 570.5,-262.1 577.5,-262.1"/>
</g>
<!-- 19&#45;&gt;0 -->
<g id="edge7" class="edge">
<title>19&#45;&gt;0</title>
<path fill="none" stroke="grey" stroke-width="2" d="M577.05,-143.79C580.4,-125.76 586.2,-96.68 593,-72 595.39,-63.34 598.39,-54.03 601.27,-45.66"/>
<polygon fill="grey" stroke="grey" stroke-width="2" points="604.64,-46.62 604.65,-36.03 598.03,-44.3 604.64,-46.62"/>
</g>
<!-- 20 -->
<g id="node21" class="node">
<title>20</title>
<path fill="none" stroke="#56d86b" stroke-width="2" d="M912.5,-108C912.5,-108 817.5,-108 817.5,-108 811.5,-108 805.5,-102 805.5,-96 805.5,-96 805.5,-84 805.5,-84 805.5,-78 811.5,-72 817.5,-72 817.5,-72 912.5,-72 912.5,-72 918.5,-72 924.5,-78 924.5,-84 924.5,-84 924.5,-96 924.5,-96 924.5,-102 918.5,-108 912.5,-108"/>
<text text-anchor="middle" x="865" y="-87.5" font-family="sans" font-size="10.00">alpha_diversity_metrics</text>
</g>
<!-- 20&#45;&gt;0 -->
<g id="edge8" class="edge">
<title>20&#45;&gt;0</title>
<path fill="none" stroke="grey" stroke-width="2" d="M805.45,-72.59C756.68,-59.15 689.22,-40.56 647.93,-29.18"/>
<polygon fill="grey" stroke="grey" stroke-width="2" points="648.85,-25.8 638.28,-26.52 646.99,-32.55 648.85,-25.8"/>
</g>
<!-- 21&#45;&gt;20 -->
<g id="edge31" class="edge">
<title>21&#45;&gt;20</title>
<path fill="none" stroke="grey" stroke-width="2" d="M778.89,-143.88C793.79,-134.72 812.33,-123.34 828.38,-113.48"/>
<polygon fill="grey" stroke="grey" stroke-width="2" points="830.31,-116.41 837.01,-108.19 826.65,-110.44 830.31,-116.41"/>
</g>
<!-- 22 -->
<g id="node23" class="node">
<title>22</title>
<path fill="none" stroke="#56d8a9" stroke-width="2" d="M1045.5,-108C1045.5,-108 954.5,-108 954.5,-108 948.5,-108 942.5,-102 942.5,-96 942.5,-96 942.5,-84 942.5,-84 942.5,-78 948.5,-72 954.5,-72 954.5,-72 1045.5,-72 1045.5,-72 1051.5,-72 1057.5,-78 1057.5,-84 1057.5,-84 1057.5,-96 1057.5,-96 1057.5,-102 1051.5,-108 1045.5,-108"/>
<text text-anchor="middle" x="1000" y="-87.5" font-family="sans" font-size="10.00">beta_diversity_metrics</text>
</g>
<!-- 21&#45;&gt;22 -->
<g id="edge33" class="edge">
<title>21&#45;&gt;22</title>
<path fill="none" stroke="grey" stroke-width="2" d="M803.2,-146.33C840.75,-135.77 891.72,-121.44 932.38,-110.01"/>
<polygon fill="grey" stroke="grey" stroke-width="2" points="933.54,-113.32 942.22,-107.24 931.64,-106.58 933.54,-113.32"/>
</g>
<!-- 23 -->
<g id="node24" class="node">
<title>23</title>
<path fill="none" stroke="#56d0d8" stroke-width="2" d="M684,-108C684,-108 614,-108 614,-108 608,-108 602,-102 602,-96 602,-96 602,-84 602,-84 602,-78 608,-72 614,-72 614,-72 684,-72 684,-72 690,-72 696,-78 696,-84 696,-84 696,-96 696,-96 696,-102 690,-108 684,-108"/>
<text text-anchor="middle" x="649" y="-87.5" font-family="sans" font-size="10.00">pcoa_mds_matrix</text>
</g>
<!-- 21&#45;&gt;23 -->
<g id="edge34" class="edge">
<title>21&#45;&gt;23</title>
<path fill="none" stroke="grey" stroke-width="2" d="M726.05,-143.88C712.96,-134.89 696.74,-123.76 682.56,-114.03"/>
<polygon fill="grey" stroke="grey" stroke-width="2" points="684.27,-110.96 674.05,-108.19 680.31,-116.73 684.27,-110.96"/>
</g>
<!-- 24 -->
<g id="node25" class="node">
<title>24</title>
<path fill="none" stroke="#b6d856" stroke-width="2" d="M775.5,-108C775.5,-108 726.5,-108 726.5,-108 720.5,-108 714.5,-102 714.5,-96 714.5,-96 714.5,-84 714.5,-84 714.5,-78 720.5,-72 726.5,-72 726.5,-72 775.5,-72 775.5,-72 781.5,-72 787.5,-78 787.5,-84 787.5,-84 787.5,-96 787.5,-96 787.5,-102 781.5,-108 775.5,-108"/>
<text text-anchor="middle" x="751" y="-87.5" font-family="sans" font-size="10.00">nmds_matrix</text>
</g>
<!-- 21&#45;&gt;24 -->
<g id="edge35" class="edge">
<title>21&#45;&gt;24</title>
<path fill="none" stroke="grey" stroke-width="2" d="M751,-143.7C751,-135.98 751,-126.71 751,-118.11"/>
<polygon fill="grey" stroke="grey" stroke-width="2" points="754.5,-118.1 751,-108.1 747.5,-118.1 754.5,-118.1"/>
</g>
<!-- 22&#45;&gt;0 -->
<g id="edge11" class="edge">
<title>22&#45;&gt;0</title>
<path fill="none" stroke="grey" stroke-width="2" d="M942.33,-74.03C939.18,-73.32 936.05,-72.64 933,-72 830.72,-50.65 708.69,-32.55 648.45,-24.1"/>
<polygon fill="grey" stroke="grey" stroke-width="2" points="648.67,-20.6 638.29,-22.69 647.71,-27.54 648.67,-20.6"/>
</g>
<!-- 23&#45;&gt;0 -->
<g id="edge2" class="edge">
<title>23&#45;&gt;0</title>
<path fill="none" stroke="grey" stroke-width="2" d="M639.61,-71.7C635.24,-63.64 629.94,-53.89 625.1,-44.98"/>
<polygon fill="grey" stroke="grey" stroke-width="2" points="628.13,-43.22 620.29,-36.1 621.98,-46.56 628.13,-43.22"/>
</g>
<!-- 24&#45;&gt;0 -->
<g id="edge1" class="edge">
<title>24&#45;&gt;0</title>
<path fill="none" stroke="grey" stroke-width="2" d="M716.75,-71.88C695.74,-61.37 668.85,-47.92 647.44,-37.22"/>
<polygon fill="grey" stroke="grey" stroke-width="2" points="648.85,-34.01 638.34,-32.67 645.72,-40.27 648.85,-34.01"/>
</g>
<!-- 25&#45;&gt;0 -->
<g id="edge6" class="edge">
<title>25&#45;&gt;0</title>
<path fill="none" stroke="grey" stroke-width="2" d="M245.23,-215.94C278.17,-205.38 315.26,-191.65 328,-180 367.31,-144.05 338.37,-105.24 380,-72 436.47,-26.91 524.17,-18.74 573.68,-18.06"/>
<polygon fill="grey" stroke="grey" stroke-width="2" points="573.95,-21.56 583.93,-18.02 573.92,-14.56 573.95,-21.56"/>
</g>
</g>
</svg>
