<?xml version="1.0" encoding="UTF-8" standalone="no"?>
<!DOCTYPE svg PUBLIC "-//W3C//DTD SVG 1.1//EN"
 "http://www.w3.org/Graphics/SVG/1.1/DTD/svg11.dtd">
<!-- Generated by graphviz version 6.0.1 (0)
 -->
<!-- Title: snakemake_dag Pages: 1 -->
<svg width="614pt" height="332pt"
 viewBox="0.00 0.00 613.50 332.00" xmlns="http://www.w3.org/2000/svg" xmlns:xlink="http://www.w3.org/1999/xlink">
<g id="graph0" class="graph" transform="scale(1 1) rotate(0) translate(4 328)">
<title>snakemake_dag</title>
<polygon fill="white" stroke="none" points="-4,4 -4,-328 609.5,-328 609.5,4 -4,4"/>
<!-- 0 -->
<g id="node1" class="node">
<title>0</title>
<path fill="none" stroke="#d8b456" stroke-width="2" d="M263.5,-36C263.5,-36 233.5,-36 233.5,-36 227.5,-36 221.5,-30 221.5,-24 221.5,-24 221.5,-12 221.5,-12 221.5,-6 227.5,0 233.5,0 233.5,0 263.5,0 263.5,0 269.5,0 275.5,-6 275.5,-12 275.5,-12 275.5,-24 275.5,-24 275.5,-30 269.5,-36 263.5,-36"/>
<text text-anchor="middle" x="248.5" y="-15.5" font-family="sans" font-size="10.00">all</text>
</g>
<!-- 1 -->
<g id="node2" class="node">
<title>1</title>
<path fill="none" stroke="#d88556" stroke-width="2" d="M97,-180C97,-180 12,-180 12,-180 6,-180 0,-174 0,-168 0,-168 0,-156 0,-156 0,-150 6,-144 12,-144 12,-144 97,-144 97,-144 103,-144 109,-150 109,-156 109,-156 109,-168 109,-168 109,-174 103,-180 97,-180"/>
<text text-anchor="middle" x="54.5" y="-159.5" font-family="sans" font-size="10.00">create_mapping_files</text>
</g>
<!-- 1&#45;&gt;0 -->
<g id="edge1" class="edge">
<title>1&#45;&gt;0</title>
<path fill="none" stroke="grey" stroke-width="2" d="M53.33,-143.96C52.94,-124.15 55.43,-91.65 73.5,-72 108.91,-33.5 171.23,-22.6 211.16,-19.73"/>
<polygon fill="grey" stroke="grey" stroke-width="2" points="211.51,-23.21 221.29,-19.13 211.1,-16.22 211.51,-23.21"/>
</g>
<!-- 2 -->
<g id="node3" class="node">
<title>2</title>
<path fill="none" stroke="#9fd856" stroke-width="2" d="M219,-252C219,-252 120,-252 120,-252 114,-252 108,-246 108,-240 108,-240 108,-228 108,-228 108,-222 114,-216 120,-216 120,-216 219,-216 219,-216 225,-216 231,-222 231,-228 231,-228 231,-240 231,-240 231,-246 225,-252 219,-252"/>
<text text-anchor="middle" x="169.5" y="-231.5" font-family="sans" font-size="10.00">merge_bioproj_metadata</text>
</g>
<!-- 2&#45;&gt;1 -->
<g id="edge6" class="edge">
<title>2&#45;&gt;1</title>
<path fill="none" stroke="grey" stroke-width="2" d="M141.37,-215.88C126.33,-206.72 107.63,-195.34 91.44,-185.48"/>
<polygon fill="grey" stroke="grey" stroke-width="2" points="93.1,-182.4 82.74,-180.19 89.46,-188.38 93.1,-182.4"/>
</g>
<!-- 5 -->
<g id="node6" class="node">
<title>5</title>
<path fill="none" stroke="#56d86b" stroke-width="2" d="M200,-180C200,-180 139,-180 139,-180 133,-180 127,-174 127,-168 127,-168 127,-156 127,-156 127,-150 133,-144 139,-144 139,-144 200,-144 200,-144 206,-144 212,-150 212,-156 212,-156 212,-168 212,-168 212,-174 206,-180 200,-180"/>
<text text-anchor="middle" x="169.5" y="-159.5" font-family="sans" font-size="10.00">read_size_table</text>
</g>
<!-- 2&#45;&gt;5 -->
<g id="edge9" class="edge">
<title>2&#45;&gt;5</title>
<path fill="none" stroke="grey" stroke-width="2" d="M169.5,-215.7C169.5,-207.98 169.5,-198.71 169.5,-190.11"/>
<polygon fill="grey" stroke="grey" stroke-width="2" points="173,-190.1 169.5,-180.1 166,-190.1 173,-190.1"/>
</g>
<!-- 6 -->
<g id="node7" class="node">
<title>6</title>
<path fill="none" stroke="#5682d8" stroke-width="2" d="M287,-108C287,-108 210,-108 210,-108 204,-108 198,-102 198,-96 198,-96 198,-84 198,-84 198,-78 204,-72 210,-72 210,-72 287,-72 287,-72 293,-72 299,-78 299,-84 299,-84 299,-96 299,-96 299,-102 293,-108 287,-108"/>
<text text-anchor="middle" x="248.5" y="-87.5" font-family="sans" font-size="10.00">plot_sampling_map</text>
</g>
<!-- 2&#45;&gt;6 -->
<g id="edge10" class="edge">
<title>2&#45;&gt;6</title>
<path fill="none" stroke="grey" stroke-width="2" d="M190,-215.89C200.4,-206.27 212.49,-193.51 220.5,-180 231.95,-160.7 239.21,-136.21 243.46,-117.81"/>
<polygon fill="grey" stroke="grey" stroke-width="2" points="246.88,-118.54 245.57,-108.03 240.04,-117.07 246.88,-118.54"/>
</g>
<!-- 3 -->
<g id="node4" class="node">
<title>3</title>
<path fill="none" stroke="#ced856" stroke-width="2" d="M216.5,-324C216.5,-324 122.5,-324 122.5,-324 116.5,-324 110.5,-318 110.5,-312 110.5,-312 110.5,-300 110.5,-300 110.5,-294 116.5,-288 122.5,-288 122.5,-288 216.5,-288 216.5,-288 222.5,-288 228.5,-294 228.5,-300 228.5,-300 228.5,-312 228.5,-312 228.5,-318 222.5,-324 216.5,-324"/>
<text text-anchor="middle" x="169.5" y="-303.5" font-family="sans" font-size="10.00">process_tidy_metadata</text>
</g>
<!-- 3&#45;&gt;2 -->
<g id="edge7" class="edge">
<title>3&#45;&gt;2</title>
<path fill="none" stroke="grey" stroke-width="2" d="M169.5,-287.7C169.5,-279.98 169.5,-270.71 169.5,-262.11"/>
<polygon fill="grey" stroke="grey" stroke-width="2" points="173,-262.1 169.5,-252.1 166,-262.1 173,-262.1"/>
</g>
<!-- 4 -->
<g id="node5" class="node">
<title>4</title>
<path fill="none" stroke="#70d856" stroke-width="2" d="M168,-108C168,-108 95,-108 95,-108 89,-108 83,-102 83,-96 83,-96 83,-84 83,-84 83,-78 89,-72 95,-72 95,-72 168,-72 168,-72 174,-72 180,-78 180,-84 180,-84 180,-96 180,-96 180,-102 174,-108 168,-108"/>
<text text-anchor="middle" x="131.5" y="-87.5" font-family="sans" font-size="10.00">plot_var_read_freq</text>
</g>
<!-- 4&#45;&gt;0 -->
<g id="edge2" class="edge">
<title>4&#45;&gt;0</title>
<path fill="none" stroke="grey" stroke-width="2" d="M160.12,-71.88C175.88,-62.45 195.58,-50.66 212.39,-40.61"/>
<polygon fill="grey" stroke="grey" stroke-width="2" points="214.6,-43.36 221.38,-35.23 211,-37.36 214.6,-43.36"/>
</g>
<!-- 5&#45;&gt;4 -->
<g id="edge8" class="edge">
<title>5&#45;&gt;4</title>
<path fill="none" stroke="grey" stroke-width="2" d="M160.11,-143.7C155.74,-135.64 150.44,-125.89 145.6,-116.98"/>
<polygon fill="grey" stroke="grey" stroke-width="2" points="148.63,-115.22 140.79,-108.1 142.48,-118.56 148.63,-115.22"/>
</g>
<!-- 6&#45;&gt;0 -->
<g id="edge5" class="edge">
<title>6&#45;&gt;0</title>
<path fill="none" stroke="grey" stroke-width="2" d="M248.5,-71.7C248.5,-63.98 248.5,-54.71 248.5,-46.11"/>
<polygon fill="grey" stroke="grey" stroke-width="2" points="252,-46.1 248.5,-36.1 245,-46.1 252,-46.1"/>
</g>
<!-- 7 -->
<g id="node8" class="node">
<title>7</title>
<path fill="none" stroke="#56b1d8" stroke-width="2" d="M431.5,-108C431.5,-108 329.5,-108 329.5,-108 323.5,-108 317.5,-102 317.5,-96 317.5,-96 317.5,-84 317.5,-84 317.5,-78 323.5,-72 329.5,-72 329.5,-72 431.5,-72 431.5,-72 437.5,-72 443.5,-78 443.5,-84 443.5,-84 443.5,-96 443.5,-96 443.5,-102 437.5,-108 431.5,-108"/>
<text text-anchor="middle" x="380.5" y="-87.5" font-family="sans" font-size="10.00">snakemake_static_report</text>
</g>
<!-- 7&#45;&gt;0 -->
<g id="edge4" class="edge">
<title>7&#45;&gt;0</title>
<path fill="none" stroke="grey" stroke-width="2" d="M348.21,-71.88C328.97,-61.67 304.51,-48.7 284.62,-38.16"/>
<polygon fill="grey" stroke="grey" stroke-width="2" points="286.04,-34.94 275.56,-33.35 282.76,-41.13 286.04,-34.94"/>
</g>
<!-- 8 -->
<g id="node9" class="node">
<title>8</title>
<path fill="none" stroke="#56d89a" stroke-width="2" d="M571.5,-108C571.5,-108 473.5,-108 473.5,-108 467.5,-108 461.5,-102 461.5,-96 461.5,-96 461.5,-84 461.5,-84 461.5,-78 467.5,-72 473.5,-72 473.5,-72 571.5,-72 571.5,-72 577.5,-72 583.5,-78 583.5,-84 583.5,-84 583.5,-96 583.5,-96 583.5,-102 577.5,-108 571.5,-108"/>
<text text-anchor="middle" x="522.5" y="-87.5" font-family="sans" font-size="10.00">deploy_to_github_pages</text>
</g>
<!-- 8&#45;&gt;0 -->
<g id="edge3" class="edge">
<title>8&#45;&gt;0</title>
<path fill="none" stroke="grey" stroke-width="2" d="M461.35,-73.38C407.5,-59.62 330.83,-40.03 285.71,-28.51"/>
<polygon fill="grey" stroke="grey" stroke-width="2" points="286.32,-25.05 275.77,-25.97 284.59,-31.83 286.32,-25.05"/>
</g>
<!-- 9 -->
<g id="node10" class="node">
<title>9</title>
<path fill="none" stroke="#d85656" stroke-width="2" d="M507.5,-180C507.5,-180 437.5,-180 437.5,-180 431.5,-180 425.5,-174 425.5,-168 425.5,-168 425.5,-156 425.5,-156 425.5,-150 431.5,-144 437.5,-144 437.5,-144 507.5,-144 507.5,-144 513.5,-144 519.5,-150 519.5,-156 519.5,-156 519.5,-168 519.5,-168 519.5,-174 513.5,-180 507.5,-180"/>
<text text-anchor="middle" x="472.5" y="-159.5" font-family="sans" font-size="10.00">get_dot_rulegraph</text>
</g>
<!-- 9&#45;&gt;8 -->
<g id="edge11" class="edge">
<title>9&#45;&gt;8</title>
<path fill="none" stroke="grey" stroke-width="2" d="M484.86,-143.7C490.73,-135.47 497.87,-125.48 504.34,-116.42"/>
<polygon fill="grey" stroke="grey" stroke-width="2" points="507.32,-118.28 510.28,-108.1 501.62,-114.21 507.32,-118.28"/>
</g>
<!-- 10 -->
<g id="node11" class="node">
<title>10</title>
<path fill="none" stroke="#56d8c9" stroke-width="2" d="M593.5,-180C593.5,-180 549.5,-180 549.5,-180 543.5,-180 537.5,-174 537.5,-168 537.5,-168 537.5,-156 537.5,-156 537.5,-150 543.5,-144 549.5,-144 549.5,-144 593.5,-144 593.5,-144 599.5,-144 605.5,-150 605.5,-156 605.5,-156 605.5,-168 605.5,-168 605.5,-174 599.5,-180 593.5,-180"/>
<text text-anchor="middle" x="571.5" y="-159.5" font-family="sans" font-size="10.00">project_tree</text>
</g>
<!-- 10&#45;&gt;8 -->
<g id="edge12" class="edge">
<title>10&#45;&gt;8</title>
<path fill="none" stroke="grey" stroke-width="2" d="M559.39,-143.7C553.63,-135.47 546.64,-125.48 540.29,-116.42"/>
<polygon fill="grey" stroke="grey" stroke-width="2" points="543.08,-114.29 534.47,-108.1 537.34,-118.3 543.08,-114.29"/>
</g>
</g>
</svg>
