<?xml version="1.0" encoding="UTF-8" standalone="no"?>
<!DOCTYPE svg PUBLIC "-//W3C//DTD SVG 1.1//EN"
 "http://www.w3.org/Graphics/SVG/1.1/DTD/svg11.dtd">
<!-- Generated by graphviz version 6.0.1 (0)
 -->
<!-- Title: snakemake_dag Pages: 1 -->
<svg width="699pt" height="188pt"
 viewBox="0.00 0.00 699.00 188.00" xmlns="http://www.w3.org/2000/svg" xmlns:xlink="http://www.w3.org/1999/xlink">
<g id="graph0" class="graph" transform="scale(1 1) rotate(0) translate(4 184)">
<title>snakemake_dag</title>
<polygon fill="white" stroke="none" points="-4,4 -4,-184 695,-184 695,4 -4,4"/>
<!-- 0 -->
<g id="node1" class="node">
<title>0</title>
<path fill="none" stroke="#56d8c9" stroke-width="2" d="M437,-36C437,-36 407,-36 407,-36 401,-36 395,-30 395,-24 395,-24 395,-12 395,-12 395,-6 401,0 407,0 407,0 437,0 437,0 443,0 449,-6 449,-12 449,-12 449,-24 449,-24 449,-30 443,-36 437,-36"/>
<text text-anchor="middle" x="422" y="-15.5" font-family="sans" font-size="10.00">all</text>
</g>
<!-- 1 -->
<g id="node2" class="node">
<title>1</title>
<path fill="none" stroke="#d85656" stroke-width="2" d="M180,-108C180,-108 82,-108 82,-108 76,-108 70,-102 70,-96 70,-96 70,-84 70,-84 70,-78 76,-72 82,-72 82,-72 180,-72 180,-72 186,-72 192,-78 192,-84 192,-84 192,-96 192,-96 192,-102 186,-108 180,-108"/>
<text text-anchor="middle" x="131" y="-87.5" font-family="sans" font-size="10.00">deploy_to_github_pages</text>
</g>
<!-- 1&#45;&gt;0 -->
<g id="edge1" class="edge">
<title>1&#45;&gt;0</title>
<path fill="none" stroke="grey" stroke-width="2" d="M192.08,-74.16C195.1,-73.43 198.08,-72.7 201,-72 265.62,-56.4 340.92,-38.38 384.84,-27.88"/>
<polygon fill="grey" stroke="grey" stroke-width="2" points="385.86,-31.23 394.78,-25.5 384.24,-24.42 385.86,-31.23"/>
</g>
<!-- 2 -->
<g id="node3" class="node">
<title>2</title>
<path fill="none" stroke="#56c9d8" stroke-width="2" d="M82,-180C82,-180 12,-180 12,-180 6,-180 0,-174 0,-168 0,-168 0,-156 0,-156 0,-150 6,-144 12,-144 12,-144 82,-144 82,-144 88,-144 94,-150 94,-156 94,-156 94,-168 94,-168 94,-174 88,-180 82,-180"/>
<text text-anchor="middle" x="47" y="-159.5" font-family="sans" font-size="10.00">get_dot_rulegraph</text>
</g>
<!-- 2&#45;&gt;1 -->
<g id="edge7" class="edge">
<title>2&#45;&gt;1</title>
<path fill="none" stroke="grey" stroke-width="2" d="M67.76,-143.7C78.24,-134.97 91.11,-124.24 102.5,-114.75"/>
<polygon fill="grey" stroke="grey" stroke-width="2" points="105.03,-117.19 110.47,-108.1 100.55,-111.82 105.03,-117.19"/>
</g>
<!-- 3 -->
<g id="node4" class="node">
<title>3</title>
<path fill="none" stroke="#56d8a2" stroke-width="2" d="M168,-180C168,-180 124,-180 124,-180 118,-180 112,-174 112,-168 112,-168 112,-156 112,-156 112,-150 118,-144 124,-144 124,-144 168,-144 168,-144 174,-144 180,-150 180,-156 180,-156 180,-168 180,-168 180,-174 174,-180 168,-180"/>
<text text-anchor="middle" x="146" y="-159.5" font-family="sans" font-size="10.00">project_tree</text>
</g>
<!-- 3&#45;&gt;1 -->
<g id="edge8" class="edge">
<title>3&#45;&gt;1</title>
<path fill="none" stroke="grey" stroke-width="2" d="M142.29,-143.7C140.64,-135.98 138.65,-126.71 136.81,-118.11"/>
<polygon fill="grey" stroke="grey" stroke-width="2" points="140.18,-117.15 134.67,-108.1 133.34,-118.62 140.18,-117.15"/>
</g>
<!-- 4 -->
<g id="node5" class="node">
<title>4</title>
<path fill="none" stroke="#d8a456" stroke-width="2" d="M319.5,-108C319.5,-108 222.5,-108 222.5,-108 216.5,-108 210.5,-102 210.5,-96 210.5,-96 210.5,-84 210.5,-84 210.5,-78 216.5,-72 222.5,-72 222.5,-72 319.5,-72 319.5,-72 325.5,-72 331.5,-78 331.5,-84 331.5,-84 331.5,-96 331.5,-96 331.5,-102 325.5,-108 319.5,-108"/>
<text text-anchor="middle" x="271" y="-87.5" font-family="sans" font-size="10.00">qiime2_phyloseq_object</text>
</g>
<!-- 4&#45;&gt;0 -->
<g id="edge2" class="edge">
<title>4&#45;&gt;0</title>
<path fill="none" stroke="grey" stroke-width="2" d="M307.94,-71.88C331.57,-60.92 362.1,-46.77 385.63,-35.86"/>
<polygon fill="grey" stroke="grey" stroke-width="2" points="387.31,-38.94 394.91,-31.56 384.37,-32.59 387.31,-38.94"/>
</g>
<!-- 5 -->
<g id="node6" class="node">
<title>5</title>
<path fill="none" stroke="#56d87b" stroke-width="2" d="M318,-180C318,-180 224,-180 224,-180 218,-180 212,-174 212,-168 212,-168 212,-156 212,-156 212,-150 218,-144 224,-144 224,-144 318,-144 318,-144 324,-144 330,-150 330,-156 330,-156 330,-168 330,-168 330,-174 324,-180 318,-180"/>
<text text-anchor="middle" x="271" y="-159.5" font-family="sans" font-size="10.00">import_processed_data</text>
</g>
<!-- 5&#45;&gt;4 -->
<g id="edge9" class="edge">
<title>5&#45;&gt;4</title>
<path fill="none" stroke="grey" stroke-width="2" d="M271,-143.7C271,-135.98 271,-126.71 271,-118.11"/>
<polygon fill="grey" stroke="grey" stroke-width="2" points="274.5,-118.1 271,-108.1 267.5,-118.1 274.5,-118.1"/>
</g>
<!-- 6 -->
<g id="node7" class="node">
<title>6</title>
<path fill="none" stroke="#56a2d8" stroke-width="2" d="M520.5,-180C520.5,-180 413.5,-180 413.5,-180 407.5,-180 401.5,-174 401.5,-168 401.5,-168 401.5,-156 401.5,-156 401.5,-150 407.5,-144 413.5,-144 413.5,-144 520.5,-144 520.5,-144 526.5,-144 532.5,-150 532.5,-156 532.5,-156 532.5,-168 532.5,-168 532.5,-174 526.5,-180 520.5,-180"/>
<text text-anchor="middle" x="467" y="-159.5" font-family="sans" font-size="10.00">import_demo_qiime2_data</text>
</g>
<!-- 6&#45;&gt;4 -->
<g id="edge10" class="edge">
<title>6&#45;&gt;4</title>
<path fill="none" stroke="grey" stroke-width="2" d="M419.3,-143.97C391.92,-134.19 357.34,-121.84 328.47,-111.52"/>
<polygon fill="grey" stroke="grey" stroke-width="2" points="329.5,-108.18 318.91,-108.11 327.15,-114.77 329.5,-108.18"/>
</g>
<!-- 7 -->
<g id="node8" class="node">
<title>7</title>
<path fill="none" stroke="#9fd856" stroke-width="2" d="M394,-108C394,-108 362,-108 362,-108 356,-108 350,-102 350,-96 350,-96 350,-84 350,-84 350,-78 356,-72 362,-72 362,-72 394,-72 394,-72 400,-72 406,-78 406,-84 406,-84 406,-96 406,-96 406,-102 400,-108 394,-108"/>
<text text-anchor="middle" x="378" y="-87.5" font-family="sans" font-size="10.00">jitter_plot</text>
</g>
<!-- 6&#45;&gt;7 -->
<g id="edge11" class="edge">
<title>6&#45;&gt;7</title>
<path fill="none" stroke="grey" stroke-width="2" d="M445,-143.7C433.79,-134.88 420,-124.03 407.85,-114.47"/>
<polygon fill="grey" stroke="grey" stroke-width="2" points="409.77,-111.54 399.75,-108.1 405.44,-117.04 409.77,-111.54"/>
</g>
<!-- 8 -->
<g id="node9" class="node">
<title>8</title>
<path fill="none" stroke="#d8c356" stroke-width="2" d="M497.5,-108C497.5,-108 436.5,-108 436.5,-108 430.5,-108 424.5,-102 424.5,-96 424.5,-96 424.5,-84 424.5,-84 424.5,-78 430.5,-72 436.5,-72 436.5,-72 497.5,-72 497.5,-72 503.5,-72 509.5,-78 509.5,-84 509.5,-84 509.5,-96 509.5,-96 509.5,-102 503.5,-108 497.5,-108"/>
<text text-anchor="middle" x="467" y="-87.5" font-family="sans" font-size="10.00">pcoa_ordination</text>
</g>
<!-- 6&#45;&gt;8 -->
<g id="edge12" class="edge">
<title>6&#45;&gt;8</title>
<path fill="none" stroke="grey" stroke-width="2" d="M467,-143.7C467,-135.98 467,-126.71 467,-118.11"/>
<polygon fill="grey" stroke="grey" stroke-width="2" points="470.5,-118.1 467,-108.1 463.5,-118.1 470.5,-118.1"/>
</g>
<!-- 9 -->
<g id="node10" class="node">
<title>9</title>
<path fill="none" stroke="#567bd8" stroke-width="2" d="M590.5,-108C590.5,-108 539.5,-108 539.5,-108 533.5,-108 527.5,-102 527.5,-96 527.5,-96 527.5,-84 527.5,-84 527.5,-78 533.5,-72 539.5,-72 539.5,-72 590.5,-72 590.5,-72 596.5,-72 602.5,-78 602.5,-84 602.5,-84 602.5,-96 602.5,-96 602.5,-102 596.5,-108 590.5,-108"/>
<text text-anchor="middle" x="565" y="-87.5" font-family="sans" font-size="10.00">heatmap_plot</text>
</g>
<!-- 6&#45;&gt;9 -->
<g id="edge13" class="edge">
<title>6&#45;&gt;9</title>
<path fill="none" stroke="grey" stroke-width="2" d="M490.97,-143.88C503.55,-134.89 519.13,-123.76 532.75,-114.03"/>
<polygon fill="grey" stroke="grey" stroke-width="2" points="534.83,-116.85 540.93,-108.19 530.76,-111.15 534.83,-116.85"/>
</g>
<!-- 10 -->
<g id="node11" class="node">
<title>10</title>
<path fill="none" stroke="#59d856" stroke-width="2" d="M679,-108C679,-108 633,-108 633,-108 627,-108 621,-102 621,-96 621,-96 621,-84 621,-84 621,-78 627,-72 633,-72 633,-72 679,-72 679,-72 685,-72 691,-78 691,-84 691,-84 691,-96 691,-96 691,-102 685,-108 679,-108"/>
<text text-anchor="middle" x="656" y="-87.5" font-family="sans" font-size="10.00">taxa_barplot</text>
</g>
<!-- 6&#45;&gt;10 -->
<g id="edge14" class="edge">
<title>6&#45;&gt;10</title>
<path fill="none" stroke="grey" stroke-width="2" d="M513.73,-143.91C541.92,-133.58 578.55,-120.1 611,-108 611.1,-107.96 611.2,-107.93 611.29,-107.89"/>
<polygon fill="grey" stroke="grey" stroke-width="2" points="612.5,-111.18 620.64,-104.39 610.05,-104.62 612.5,-111.18"/>
</g>
<!-- 7&#45;&gt;0 -->
<g id="edge4" class="edge">
<title>7&#45;&gt;0</title>
<path fill="none" stroke="grey" stroke-width="2" d="M388.88,-71.7C393.99,-63.56 400.2,-53.69 405.84,-44.7"/>
<polygon fill="grey" stroke="grey" stroke-width="2" points="408.89,-46.43 411.25,-36.1 402.96,-42.71 408.89,-46.43"/>
</g>
<!-- 8&#45;&gt;0 -->
<g id="edge3" class="edge">
<title>8&#45;&gt;0</title>
<path fill="none" stroke="grey" stroke-width="2" d="M455.88,-71.7C450.64,-63.56 444.3,-53.69 438.52,-44.7"/>
<polygon fill="grey" stroke="grey" stroke-width="2" points="441.35,-42.62 433,-36.1 435.46,-46.41 441.35,-42.62"/>
</g>
<!-- 9&#45;&gt;0 -->
<g id="edge6" class="edge">
<title>9&#45;&gt;0</title>
<path fill="none" stroke="grey" stroke-width="2" d="M530.02,-71.88C508.17,-61.18 480.1,-47.44 458.05,-36.65"/>
<polygon fill="grey" stroke="grey" stroke-width="2" points="459.53,-33.47 449.01,-32.22 456.45,-39.76 459.53,-33.47"/>
</g>
<!-- 10&#45;&gt;0 -->
<g id="edge5" class="edge">
<title>10&#45;&gt;0</title>
<path fill="none" stroke="grey" stroke-width="2" d="M620.73,-75.34C617.45,-74.17 614.17,-73.04 611,-72 558.69,-54.82 497.13,-38.22 458.83,-28.3"/>
<polygon fill="grey" stroke="grey" stroke-width="2" points="459.7,-24.91 449.14,-25.81 457.95,-31.69 459.7,-24.91"/>
</g>
</g>
</svg>
