<?xml version="1.0" encoding="UTF-8" standalone="no"?>
<!DOCTYPE svg PUBLIC "-//W3C//DTD SVG 1.1//EN"
 "http://www.w3.org/Graphics/SVG/1.1/DTD/svg11.dtd">
<!-- Generated by graphviz version 6.0.1 (0)
 -->
<!-- Title: snakemake_dag Pages: 1 -->
<svg width="1204pt" height="260pt"
 viewBox="0.00 0.00 1203.50 260.00" xmlns="http://www.w3.org/2000/svg" xmlns:xlink="http://www.w3.org/1999/xlink">
<g id="graph0" class="graph" transform="scale(1 1) rotate(0) translate(4 256)">
<title>snakemake_dag</title>
<polygon fill="white" stroke="none" points="-4,4 -4,-256 1199.5,-256 1199.5,4 -4,4"/>
<!-- 0 -->
<g id="node1" class="node">
<title>0</title>
<path fill="none" stroke="#59d856" stroke-width="2" d="M705,-36C705,-36 675,-36 675,-36 669,-36 663,-30 663,-24 663,-24 663,-12 663,-12 663,-6 669,0 675,0 675,0 705,0 705,0 711,0 717,-6 717,-12 717,-12 717,-24 717,-24 717,-30 711,-36 705,-36"/>
<text text-anchor="middle" x="690" y="-15.5" font-family="sans" font-size="10.00">all</text>
</g>
<!-- 1 -->
<g id="node2" class="node">
<title>1</title>
<path fill="none" stroke="#d86e56" stroke-width="2" d="M195,-108C195,-108 97,-108 97,-108 91,-108 85,-102 85,-96 85,-96 85,-84 85,-84 85,-78 91,-72 97,-72 97,-72 195,-72 195,-72 201,-72 207,-78 207,-84 207,-84 207,-96 207,-96 207,-102 201,-108 195,-108"/>
<text text-anchor="middle" x="146" y="-87.5" font-family="sans" font-size="10.00">deploy_to_github_pages</text>
</g>
<!-- 1&#45;&gt;0 -->
<g id="edge2" class="edge">
<title>1&#45;&gt;0</title>
<path fill="none" stroke="grey" stroke-width="2" d="M207.08,-81.14C320.54,-66.54 560.62,-35.65 652.84,-23.78"/>
<polygon fill="grey" stroke="grey" stroke-width="2" points="653.36,-27.24 662.83,-22.5 652.47,-20.3 653.36,-27.24"/>
</g>
<!-- 2 -->
<g id="node3" class="node">
<title>2</title>
<path fill="none" stroke="#5682d8" stroke-width="2" d="M82,-180C82,-180 12,-180 12,-180 6,-180 0,-174 0,-168 0,-168 0,-156 0,-156 0,-150 6,-144 12,-144 12,-144 82,-144 82,-144 88,-144 94,-150 94,-156 94,-156 94,-168 94,-168 94,-174 88,-180 82,-180"/>
<text text-anchor="middle" x="47" y="-159.5" font-family="sans" font-size="10.00">get_dot_rulegraph</text>
</g>
<!-- 2&#45;&gt;1 -->
<g id="edge7" class="edge">
<title>2&#45;&gt;1</title>
<path fill="none" stroke="grey" stroke-width="2" d="M71.22,-143.88C83.92,-134.89 99.66,-123.76 113.42,-114.03"/>
<polygon fill="grey" stroke="grey" stroke-width="2" points="115.54,-116.82 121.69,-108.19 111.5,-111.11 115.54,-116.82"/>
</g>
<!-- 3 -->
<g id="node4" class="node">
<title>3</title>
<path fill="none" stroke="#d88556" stroke-width="2" d="M168,-180C168,-180 124,-180 124,-180 118,-180 112,-174 112,-168 112,-168 112,-156 112,-156 112,-150 118,-144 124,-144 124,-144 168,-144 168,-144 174,-144 180,-150 180,-156 180,-156 180,-168 180,-168 180,-174 174,-180 168,-180"/>
<text text-anchor="middle" x="146" y="-159.5" font-family="sans" font-size="10.00">project_tree</text>
</g>
<!-- 3&#45;&gt;1 -->
<g id="edge8" class="edge">
<title>3&#45;&gt;1</title>
<path fill="none" stroke="grey" stroke-width="2" d="M146,-143.7C146,-135.98 146,-126.71 146,-118.11"/>
<polygon fill="grey" stroke="grey" stroke-width="2" points="149.5,-118.1 146,-108.1 142.5,-118.1 149.5,-118.1"/>
</g>
<!-- 4 -->
<g id="node5" class="node">
<title>4</title>
<path fill="none" stroke="#569ad8" stroke-width="2" d="M501,-108C501,-108 391,-108 391,-108 385,-108 379,-102 379,-96 379,-96 379,-84 379,-84 379,-78 385,-72 391,-72 391,-72 501,-72 501,-72 507,-72 513,-78 513,-84 513,-84 513,-96 513,-96 513,-102 507,-108 501,-108"/>
<text text-anchor="middle" x="446" y="-87.5" font-family="sans" font-size="10.00">qiime2_composite_Robject</text>
</g>
<!-- 4&#45;&gt;0 -->
<g id="edge6" class="edge">
<title>4&#45;&gt;0</title>
<path fill="none" stroke="grey" stroke-width="2" d="M505.38,-71.97C551.44,-58.75 613.86,-40.84 653.02,-29.61"/>
<polygon fill="grey" stroke="grey" stroke-width="2" points="654.05,-32.96 662.69,-26.83 652.12,-26.23 654.05,-32.96"/>
</g>
<!-- 5 -->
<g id="node6" class="node">
<title>5</title>
<path fill="none" stroke="#56d89a" stroke-width="2" d="M338,-180C338,-180 210,-180 210,-180 204,-180 198,-174 198,-168 198,-168 198,-156 198,-156 198,-150 204,-144 210,-144 210,-144 338,-144 338,-144 344,-144 350,-150 350,-156 350,-156 350,-168 350,-168 350,-174 344,-180 338,-180"/>
<text text-anchor="middle" x="274" y="-159.5" font-family="sans" font-size="10.00">process_qiime2_tidy_metadata</text>
</g>
<!-- 5&#45;&gt;4 -->
<g id="edge10" class="edge">
<title>5&#45;&gt;4</title>
<path fill="none" stroke="grey" stroke-width="2" d="M316.08,-143.88C339.8,-134.22 369.62,-122.09 394.7,-111.88"/>
<polygon fill="grey" stroke="grey" stroke-width="2" points="396.12,-115.08 404.06,-108.07 393.48,-108.6 396.12,-115.08"/>
</g>
<!-- 11 -->
<g id="node12" class="node">
<title>11</title>
<path fill="none" stroke="#56b1d8" stroke-width="2" d="M650,-108C650,-108 548,-108 548,-108 542,-108 536,-102 536,-96 536,-96 536,-84 536,-84 536,-78 542,-72 548,-72 548,-72 650,-72 650,-72 656,-72 662,-78 662,-84 662,-84 662,-96 662,-96 662,-102 656,-108 650,-108"/>
<text text-anchor="middle" x="599" y="-87.5" font-family="sans" font-size="10.00">qiime2_phyloseq_objects</text>
</g>
<!-- 5&#45;&gt;11 -->
<g id="edge16" class="edge">
<title>5&#45;&gt;11</title>
<path fill="none" stroke="grey" stroke-width="2" d="M350.01,-144.9C399.1,-134.46 464.35,-120.52 522,-108 523.28,-107.72 524.57,-107.44 525.87,-107.16"/>
<polygon fill="grey" stroke="grey" stroke-width="2" points="526.95,-110.5 535.98,-104.95 525.46,-103.67 526.95,-110.5"/>
</g>
<!-- 6 -->
<g id="node7" class="node">
<title>6</title>
<path fill="none" stroke="#88d856" stroke-width="2" d="M323.5,-252C323.5,-252 224.5,-252 224.5,-252 218.5,-252 212.5,-246 212.5,-240 212.5,-240 212.5,-228 212.5,-228 212.5,-222 218.5,-216 224.5,-216 224.5,-216 323.5,-216 323.5,-216 329.5,-216 335.5,-222 335.5,-228 335.5,-228 335.5,-240 335.5,-240 335.5,-246 329.5,-252 323.5,-252"/>
<text text-anchor="middle" x="274" y="-231.5" font-family="sans" font-size="10.00">import_qiime2_metadata</text>
</g>
<!-- 6&#45;&gt;5 -->
<g id="edge12" class="edge">
<title>6&#45;&gt;5</title>
<path fill="none" stroke="grey" stroke-width="2" d="M274,-215.7C274,-207.98 274,-198.71 274,-190.11"/>
<polygon fill="grey" stroke="grey" stroke-width="2" points="277.5,-190.1 274,-180.1 270.5,-190.1 277.5,-190.1"/>
</g>
<!-- 7 -->
<g id="node8" class="node">
<title>7</title>
<path fill="none" stroke="#70d856" stroke-width="2" d="M502,-180C502,-180 380,-180 380,-180 374,-180 368,-174 368,-168 368,-168 368,-156 368,-156 368,-150 374,-144 380,-144 380,-144 502,-144 502,-144 508,-144 514,-150 514,-156 514,-156 514,-168 514,-168 514,-174 508,-180 502,-180"/>
<text text-anchor="middle" x="441" y="-159.5" font-family="sans" font-size="10.00">process_qiime2_tidy_features</text>
</g>
<!-- 7&#45;&gt;4 -->
<g id="edge11" class="edge">
<title>7&#45;&gt;4</title>
<path fill="none" stroke="grey" stroke-width="2" d="M442.24,-143.7C442.79,-135.98 443.45,-126.71 444.06,-118.11"/>
<polygon fill="grey" stroke="grey" stroke-width="2" points="447.56,-118.33 444.78,-108.1 440.57,-117.83 447.56,-118.33"/>
</g>
<!-- 7&#45;&gt;11 -->
<g id="edge17" class="edge">
<title>7&#45;&gt;11</title>
<path fill="none" stroke="grey" stroke-width="2" d="M479.65,-143.88C501.25,-134.31 528.35,-122.3 551.27,-112.15"/>
<polygon fill="grey" stroke="grey" stroke-width="2" points="552.75,-115.32 560.47,-108.07 549.91,-108.92 552.75,-115.32"/>
</g>
<!-- 8 -->
<g id="node9" class="node">
<title>8</title>
<path fill="none" stroke="#56d8b1" stroke-width="2" d="M488,-252C488,-252 394,-252 394,-252 388,-252 382,-246 382,-240 382,-240 382,-228 382,-228 382,-222 388,-216 394,-216 394,-216 488,-216 488,-216 494,-216 500,-222 500,-228 500,-228 500,-240 500,-240 500,-246 494,-252 488,-252"/>
<text text-anchor="middle" x="441" y="-231.5" font-family="sans" font-size="10.00">import_qiime2_features</text>
</g>
<!-- 8&#45;&gt;7 -->
<g id="edge13" class="edge">
<title>8&#45;&gt;7</title>
<path fill="none" stroke="grey" stroke-width="2" d="M441,-215.7C441,-207.98 441,-198.71 441,-190.11"/>
<polygon fill="grey" stroke="grey" stroke-width="2" points="444.5,-190.1 441,-180.1 437.5,-190.1 444.5,-190.1"/>
</g>
<!-- 9 -->
<g id="node10" class="node">
<title>9</title>
<path fill="none" stroke="#d8cb56" stroke-width="2" d="M674,-180C674,-180 544,-180 544,-180 538,-180 532,-174 532,-168 532,-168 532,-156 532,-156 532,-150 538,-144 544,-144 544,-144 674,-144 674,-144 680,-144 686,-150 686,-156 686,-156 686,-168 686,-168 686,-174 680,-180 674,-180"/>
<text text-anchor="middle" x="609" y="-159.5" font-family="sans" font-size="10.00">process_qiime2_tidy_taxonomy</text>
</g>
<!-- 9&#45;&gt;4 -->
<g id="edge9" class="edge">
<title>9&#45;&gt;4</title>
<path fill="none" stroke="grey" stroke-width="2" d="M569.13,-143.88C546.84,-134.31 518.88,-122.3 495.24,-112.15"/>
<polygon fill="grey" stroke="grey" stroke-width="2" points="496.31,-108.8 485.74,-108.07 493.55,-115.23 496.31,-108.8"/>
</g>
<!-- 9&#45;&gt;11 -->
<g id="edge15" class="edge">
<title>9&#45;&gt;11</title>
<path fill="none" stroke="grey" stroke-width="2" d="M606.53,-143.7C605.43,-135.98 604.1,-126.71 602.87,-118.11"/>
<polygon fill="grey" stroke="grey" stroke-width="2" points="606.32,-117.51 601.44,-108.1 599.39,-118.5 606.32,-117.51"/>
</g>
<!-- 10 -->
<g id="node11" class="node">
<title>10</title>
<path fill="none" stroke="#56d8c9" stroke-width="2" d="M659.5,-252C659.5,-252 558.5,-252 558.5,-252 552.5,-252 546.5,-246 546.5,-240 546.5,-240 546.5,-228 546.5,-228 546.5,-222 552.5,-216 558.5,-216 558.5,-216 659.5,-216 659.5,-216 665.5,-216 671.5,-222 671.5,-228 671.5,-228 671.5,-240 671.5,-240 671.5,-246 665.5,-252 659.5,-252"/>
<text text-anchor="middle" x="609" y="-231.5" font-family="sans" font-size="10.00">import_qiime2_taxonomy</text>
</g>
<!-- 10&#45;&gt;9 -->
<g id="edge14" class="edge">
<title>10&#45;&gt;9</title>
<path fill="none" stroke="grey" stroke-width="2" d="M609,-215.7C609,-207.98 609,-198.71 609,-190.11"/>
<polygon fill="grey" stroke="grey" stroke-width="2" points="612.5,-190.1 609,-180.1 605.5,-190.1 612.5,-190.1"/>
</g>
<!-- 11&#45;&gt;0 -->
<g id="edge5" class="edge">
<title>11&#45;&gt;0</title>
<path fill="none" stroke="grey" stroke-width="2" d="M621.49,-71.7C632.96,-62.88 647.06,-52.03 659.48,-42.47"/>
<polygon fill="grey" stroke="grey" stroke-width="2" points="661.97,-44.98 667.76,-36.1 657.7,-39.43 661.97,-44.98"/>
</g>
<!-- 12 -->
<g id="node13" class="node">
<title>12</title>
<path fill="none" stroke="#d85656" stroke-width="2" d="M817.5,-108C817.5,-108 744.5,-108 744.5,-108 738.5,-108 732.5,-102 732.5,-96 732.5,-96 732.5,-84 732.5,-84 732.5,-78 738.5,-72 744.5,-72 744.5,-72 817.5,-72 817.5,-72 823.5,-72 829.5,-78 829.5,-84 829.5,-84 829.5,-96 829.5,-96 829.5,-102 823.5,-108 817.5,-108"/>
<text text-anchor="middle" x="781" y="-87.5" font-family="sans" font-size="10.00">mothur_composite</text>
</g>
<!-- 12&#45;&gt;0 -->
<g id="edge1" class="edge">
<title>12&#45;&gt;0</title>
<path fill="none" stroke="grey" stroke-width="2" d="M758.51,-71.7C747.04,-62.88 732.94,-52.03 720.52,-42.47"/>
<polygon fill="grey" stroke="grey" stroke-width="2" points="722.3,-39.43 712.24,-36.1 718.03,-44.98 722.3,-39.43"/>
</g>
<!-- 13 -->
<g id="node14" class="node">
<title>13</title>
<path fill="none" stroke="#d8b456" stroke-width="2" d="M845.5,-180C845.5,-180 716.5,-180 716.5,-180 710.5,-180 704.5,-174 704.5,-168 704.5,-168 704.5,-156 704.5,-156 704.5,-150 710.5,-144 716.5,-144 716.5,-144 845.5,-144 845.5,-144 851.5,-144 857.5,-150 857.5,-156 857.5,-156 857.5,-168 857.5,-168 857.5,-174 851.5,-180 845.5,-180"/>
<text text-anchor="middle" x="781" y="-159.5" font-family="sans" font-size="10.00">process_mothur_tidy_metadata</text>
</g>
<!-- 13&#45;&gt;12 -->
<g id="edge20" class="edge">
<title>13&#45;&gt;12</title>
<path fill="none" stroke="grey" stroke-width="2" d="M781,-143.7C781,-135.98 781,-126.71 781,-118.11"/>
<polygon fill="grey" stroke="grey" stroke-width="2" points="784.5,-118.1 781,-108.1 777.5,-118.1 784.5,-118.1"/>
</g>
<!-- 19 -->
<g id="node20" class="node">
<title>19</title>
<path fill="none" stroke="#d89c56" stroke-width="2" d="M964,-108C964,-108 860,-108 860,-108 854,-108 848,-102 848,-96 848,-96 848,-84 848,-84 848,-78 854,-72 860,-72 860,-72 964,-72 964,-72 970,-72 976,-78 976,-84 976,-84 976,-96 976,-96 976,-102 970,-108 964,-108"/>
<text text-anchor="middle" x="912" y="-87.5" font-family="sans" font-size="10.00">mothur_phyloseq_objects</text>
</g>
<!-- 13&#45;&gt;19 -->
<g id="edge26" class="edge">
<title>13&#45;&gt;19</title>
<path fill="none" stroke="grey" stroke-width="2" d="M813.05,-143.88C830.49,-134.55 852.27,-122.92 870.94,-112.94"/>
<polygon fill="grey" stroke="grey" stroke-width="2" points="872.66,-115.99 879.83,-108.19 869.36,-109.82 872.66,-115.99"/>
</g>
<!-- 14 -->
<g id="node15" class="node">
<title>14</title>
<path fill="none" stroke="#b6d856" stroke-width="2" d="M831.5,-252C831.5,-252 730.5,-252 730.5,-252 724.5,-252 718.5,-246 718.5,-240 718.5,-240 718.5,-228 718.5,-228 718.5,-222 724.5,-216 730.5,-216 730.5,-216 831.5,-216 831.5,-216 837.5,-216 843.5,-222 843.5,-228 843.5,-228 843.5,-240 843.5,-240 843.5,-246 837.5,-252 831.5,-252"/>
<text text-anchor="middle" x="781" y="-231.5" font-family="sans" font-size="10.00">import_mothur_metadata</text>
</g>
<!-- 14&#45;&gt;13 -->
<g id="edge21" class="edge">
<title>14&#45;&gt;13</title>
<path fill="none" stroke="grey" stroke-width="2" d="M781,-215.7C781,-207.98 781,-198.71 781,-190.11"/>
<polygon fill="grey" stroke="grey" stroke-width="2" points="784.5,-190.1 781,-180.1 777.5,-190.1 784.5,-190.1"/>
</g>
<!-- 15 -->
<g id="node16" class="node">
<title>15</title>
<path fill="none" stroke="#56d882" stroke-width="2" d="M1010.5,-180C1010.5,-180 887.5,-180 887.5,-180 881.5,-180 875.5,-174 875.5,-168 875.5,-168 875.5,-156 875.5,-156 875.5,-150 881.5,-144 887.5,-144 887.5,-144 1010.5,-144 1010.5,-144 1016.5,-144 1022.5,-150 1022.5,-156 1022.5,-156 1022.5,-168 1022.5,-168 1022.5,-174 1016.5,-180 1010.5,-180"/>
<text text-anchor="middle" x="949" y="-159.5" font-family="sans" font-size="10.00">process_mothur_tidy_otutable</text>
</g>
<!-- 15&#45;&gt;12 -->
<g id="edge18" class="edge">
<title>15&#45;&gt;12</title>
<path fill="none" stroke="grey" stroke-width="2" d="M907.9,-143.88C884.83,-134.26 855.86,-122.19 831.43,-112.01"/>
<polygon fill="grey" stroke="grey" stroke-width="2" points="832.54,-108.68 821.96,-108.07 829.85,-115.15 832.54,-108.68"/>
</g>
<!-- 15&#45;&gt;19 -->
<g id="edge24" class="edge">
<title>15&#45;&gt;19</title>
<path fill="none" stroke="grey" stroke-width="2" d="M939.85,-143.7C935.6,-135.64 930.44,-125.89 925.73,-116.98"/>
<polygon fill="grey" stroke="grey" stroke-width="2" points="928.81,-115.31 921.04,-108.1 922.62,-118.58 928.81,-115.31"/>
</g>
<!-- 16 -->
<g id="node17" class="node">
<title>16</title>
<path fill="none" stroke="#56d86b" stroke-width="2" d="M996.5,-252C996.5,-252 901.5,-252 901.5,-252 895.5,-252 889.5,-246 889.5,-240 889.5,-240 889.5,-228 889.5,-228 889.5,-222 895.5,-216 901.5,-216 901.5,-216 996.5,-216 996.5,-216 1002.5,-216 1008.5,-222 1008.5,-228 1008.5,-228 1008.5,-240 1008.5,-240 1008.5,-246 1002.5,-252 996.5,-252"/>
<text text-anchor="middle" x="949" y="-231.5" font-family="sans" font-size="10.00">import_mothur_otutable</text>
</g>
<!-- 16&#45;&gt;15 -->
<g id="edge22" class="edge">
<title>16&#45;&gt;15</title>
<path fill="none" stroke="grey" stroke-width="2" d="M949,-215.7C949,-207.98 949,-198.71 949,-190.11"/>
<polygon fill="grey" stroke="grey" stroke-width="2" points="952.5,-190.1 949,-180.1 945.5,-190.1 952.5,-190.1"/>
</g>
<!-- 17 -->
<g id="node18" class="node">
<title>17</title>
<path fill="none" stroke="#56c9d8" stroke-width="2" d="M1183.5,-180C1183.5,-180 1052.5,-180 1052.5,-180 1046.5,-180 1040.5,-174 1040.5,-168 1040.5,-168 1040.5,-156 1040.5,-156 1040.5,-150 1046.5,-144 1052.5,-144 1052.5,-144 1183.5,-144 1183.5,-144 1189.5,-144 1195.5,-150 1195.5,-156 1195.5,-156 1195.5,-168 1195.5,-168 1195.5,-174 1189.5,-180 1183.5,-180"/>
<text text-anchor="middle" x="1118" y="-159.5" font-family="sans" font-size="10.00">process_mothur_tidy_taxonomy</text>
</g>
<!-- 17&#45;&gt;12 -->
<g id="edge19" class="edge">
<title>17&#45;&gt;12</title>
<path fill="none" stroke="grey" stroke-width="2" d="M1040.22,-145.77C1037.1,-145.17 1034.02,-144.58 1031,-144 948.81,-128.26 925.12,-128.22 839.53,-108"/>
<polygon fill="grey" stroke="grey" stroke-width="2" points="840.18,-104.56 829.64,-105.64 838.55,-111.36 840.18,-104.56"/>
</g>
<!-- 17&#45;&gt;19 -->
<g id="edge25" class="edge">
<title>17&#45;&gt;19</title>
<path fill="none" stroke="grey" stroke-width="2" d="M1067.87,-143.97C1038.96,-134.14 1002.43,-121.73 972,-111.39"/>
<polygon fill="grey" stroke="grey" stroke-width="2" points="972.95,-108.01 962.35,-108.11 970.7,-114.64 972.95,-108.01"/>
</g>
<!-- 18 -->
<g id="node19" class="node">
<title>18</title>
<path fill="none" stroke="#ced856" stroke-width="2" d="M1169.5,-252C1169.5,-252 1066.5,-252 1066.5,-252 1060.5,-252 1054.5,-246 1054.5,-240 1054.5,-240 1054.5,-228 1054.5,-228 1054.5,-222 1060.5,-216 1066.5,-216 1066.5,-216 1169.5,-216 1169.5,-216 1175.5,-216 1181.5,-222 1181.5,-228 1181.5,-228 1181.5,-240 1181.5,-240 1181.5,-246 1175.5,-252 1169.5,-252"/>
<text text-anchor="middle" x="1118" y="-231.5" font-family="sans" font-size="10.00">import_mothur_taxonomy</text>
</g>
<!-- 18&#45;&gt;17 -->
<g id="edge23" class="edge">
<title>18&#45;&gt;17</title>
<path fill="none" stroke="grey" stroke-width="2" d="M1118,-215.7C1118,-207.98 1118,-198.71 1118,-190.11"/>
<polygon fill="grey" stroke="grey" stroke-width="2" points="1121.5,-190.1 1118,-180.1 1114.5,-190.1 1121.5,-190.1"/>
</g>
<!-- 19&#45;&gt;0 -->
<g id="edge4" class="edge">
<title>19&#45;&gt;0</title>
<path fill="none" stroke="grey" stroke-width="2" d="M857.98,-71.97C817.27,-59.13 762.53,-41.87 726.77,-30.59"/>
<polygon fill="grey" stroke="grey" stroke-width="2" points="727.81,-27.25 717.22,-27.58 725.7,-33.93 727.81,-27.25"/>
</g>
<!-- 20 -->
<g id="node21" class="node">
<title>20</title>
<path fill="none" stroke="#9fd856" stroke-width="2" d="M1116,-108C1116,-108 1006,-108 1006,-108 1000,-108 994,-102 994,-96 994,-96 994,-84 994,-84 994,-78 1000,-72 1006,-72 1006,-72 1116,-72 1116,-72 1122,-72 1128,-78 1128,-84 1128,-84 1128,-96 1128,-96 1128,-102 1122,-108 1116,-108"/>
<text text-anchor="middle" x="1061" y="-87.5" font-family="sans" font-size="10.00">example_phyloseq_objects</text>
</g>
<!-- 20&#45;&gt;0 -->
<g id="edge3" class="edge">
<title>20&#45;&gt;0</title>
<path fill="none" stroke="grey" stroke-width="2" d="M993.9,-73.83C990.89,-73.2 987.92,-72.59 985,-72 892.75,-53.4 783.62,-34.63 727.5,-25.21"/>
<polygon fill="grey" stroke="grey" stroke-width="2" points="727.76,-21.71 717.32,-23.51 726.61,-28.61 727.76,-21.71"/>
</g>
</g>
</svg>
