<?xml version="1.0" encoding="UTF-8" standalone="no"?>
<!DOCTYPE svg PUBLIC "-//W3C//DTD SVG 1.1//EN"
 "http://www.w3.org/Graphics/SVG/1.1/DTD/svg11.dtd">
<!-- Generated by graphviz version 6.0.1 (0)
 -->
<!-- Title: snakemake_dag Pages: 1 -->
<svg width="956pt" height="116pt"
 viewBox="0.00 0.00 956.00 116.00" xmlns="http://www.w3.org/2000/svg" xmlns:xlink="http://www.w3.org/1999/xlink">
<g id="graph0" class="graph" transform="scale(1 1) rotate(0) translate(4 112)">
<title>snakemake_dag</title>
<polygon fill="white" stroke="none" points="-4,4 -4,-112 952,-112 952,4 -4,4"/>
<!-- 0 -->
<g id="node1" class="node">
<title>0</title>
<path fill="none" stroke="#56d8d8" stroke-width="2" d="M470,-36C470,-36 440,-36 440,-36 434,-36 428,-30 428,-24 428,-24 428,-12 428,-12 428,-6 434,0 440,0 440,0 470,0 470,0 476,0 482,-6 482,-12 482,-12 482,-24 482,-24 482,-30 476,-36 470,-36"/>
<text text-anchor="middle" x="455" y="-15.5" font-family="sans" font-size="10.00">all</text>
</g>
<!-- 1 -->
<g id="node2" class="node">
<title>1</title>
<path fill="none" stroke="#80d856" stroke-width="2" d="M108,-108C108,-108 12,-108 12,-108 6,-108 0,-102 0,-96 0,-96 0,-84 0,-84 0,-78 6,-72 12,-72 12,-72 108,-72 108,-72 114,-72 120,-78 120,-84 120,-84 120,-96 120,-96 120,-102 114,-108 108,-108"/>
<text text-anchor="middle" x="60" y="-87.5" font-family="sans" font-size="10.00">required_tools_category</text>
</g>
<!-- 1&#45;&gt;0 -->
<g id="edge4" class="edge">
<title>1&#45;&gt;0</title>
<path fill="none" stroke="grey" stroke-width="2" d="M120.15,-73.88C123.14,-73.22 126.1,-72.59 129,-72 232.88,-50.79 356.76,-32.57 417.57,-24.09"/>
<polygon fill="grey" stroke="grey" stroke-width="2" points="418.39,-27.51 427.82,-22.67 417.43,-20.57 418.39,-27.51"/>
</g>
<!-- 2 -->
<g id="node3" class="node">
<title>2</title>
<path fill="none" stroke="#5682d8" stroke-width="2" d="M240,-108C240,-108 150,-108 150,-108 144,-108 138,-102 138,-96 138,-96 138,-84 138,-84 138,-78 144,-72 150,-72 150,-72 240,-72 240,-72 246,-72 252,-78 252,-84 252,-84 252,-96 252,-96 252,-102 246,-108 240,-108"/>
<text text-anchor="middle" x="195" y="-87.5" font-family="sans" font-size="10.00">data_exploration_tools</text>
</g>
<!-- 2&#45;&gt;0 -->
<g id="edge7" class="edge">
<title>2&#45;&gt;0</title>
<path fill="none" stroke="grey" stroke-width="2" d="M252.06,-73.64C302.57,-60.04 374.8,-40.59 418.09,-28.94"/>
<polygon fill="grey" stroke="grey" stroke-width="2" points="419.17,-32.27 427.91,-26.29 417.35,-25.51 419.17,-32.27"/>
</g>
<!-- 3 -->
<g id="node4" class="node">
<title>3</title>
<path fill="none" stroke="#59d856" stroke-width="2" d="M364,-108C364,-108 282,-108 282,-108 276,-108 270,-102 270,-96 270,-96 270,-84 270,-84 270,-78 276,-72 282,-72 282,-72 364,-72 364,-72 370,-72 376,-78 376,-84 376,-84 376,-96 376,-96 376,-102 370,-108 364,-108"/>
<text text-anchor="middle" x="323" y="-87.5" font-family="sans" font-size="10.00">quality_control_tools</text>
</g>
<!-- 3&#45;&gt;0 -->
<g id="edge5" class="edge">
<title>3&#45;&gt;0</title>
<path fill="none" stroke="grey" stroke-width="2" d="M355.29,-71.88C374.53,-61.67 398.99,-48.7 418.88,-38.16"/>
<polygon fill="grey" stroke="grey" stroke-width="2" points="420.74,-41.13 427.94,-33.35 417.46,-34.94 420.74,-41.13"/>
</g>
<!-- 4 -->
<g id="node5" class="node">
<title>4</title>
<path fill="none" stroke="#afd856" stroke-width="2" d="M503.5,-108C503.5,-108 406.5,-108 406.5,-108 400.5,-108 394.5,-102 394.5,-96 394.5,-96 394.5,-84 394.5,-84 394.5,-78 400.5,-72 406.5,-72 406.5,-72 503.5,-72 503.5,-72 509.5,-72 515.5,-78 515.5,-84 515.5,-84 515.5,-96 515.5,-96 515.5,-102 509.5,-108 503.5,-108"/>
<text text-anchor="middle" x="455" y="-87.5" font-family="sans" font-size="10.00">microbial_profiling_tools</text>
</g>
<!-- 4&#45;&gt;0 -->
<g id="edge6" class="edge">
<title>4&#45;&gt;0</title>
<path fill="none" stroke="grey" stroke-width="2" d="M455,-71.7C455,-63.98 455,-54.71 455,-46.11"/>
<polygon fill="grey" stroke="grey" stroke-width="2" points="458.5,-46.1 455,-36.1 451.5,-46.1 458.5,-46.1"/>
</g>
<!-- 5 -->
<g id="node6" class="node">
<title>5</title>
<path fill="none" stroke="#d85656" stroke-width="2" d="M658,-108C658,-108 546,-108 546,-108 540,-108 534,-102 534,-96 534,-96 534,-84 534,-84 534,-78 540,-72 546,-72 546,-72 658,-72 658,-72 664,-72 670,-78 670,-84 670,-84 670,-96 670,-96 670,-102 664,-108 658,-108"/>
<text text-anchor="middle" x="602" y="-87.5" font-family="sans" font-size="10.00">env_pkg_management_sys</text>
</g>
<!-- 5&#45;&gt;0 -->
<g id="edge1" class="edge">
<title>5&#45;&gt;0</title>
<path fill="none" stroke="grey" stroke-width="2" d="M566.04,-71.88C543.43,-61.11 514.34,-47.26 491.61,-36.43"/>
<polygon fill="grey" stroke="grey" stroke-width="2" points="492.83,-33.14 482.29,-32 489.82,-39.46 492.83,-33.14"/>
</g>
<!-- 6 -->
<g id="node7" class="node">
<title>6</title>
<path fill="none" stroke="#d8ac56" stroke-width="2" d="M814,-108C814,-108 700,-108 700,-108 694,-108 688,-102 688,-96 688,-96 688,-84 688,-84 688,-78 694,-72 700,-72 700,-72 814,-72 814,-72 820,-72 826,-78 826,-84 826,-84 826,-96 826,-96 826,-102 820,-108 814,-108"/>
<text text-anchor="middle" x="757" y="-87.5" font-family="sans" font-size="10.00">workflow_management_sys</text>
</g>
<!-- 6&#45;&gt;0 -->
<g id="edge2" class="edge">
<title>6&#45;&gt;0</title>
<path fill="none" stroke="grey" stroke-width="2" d="M687.72,-72.94C626.75,-58.81 540.35,-38.78 491.8,-27.53"/>
<polygon fill="grey" stroke="grey" stroke-width="2" points="492.57,-24.12 482.04,-25.27 490.99,-30.94 492.57,-24.12"/>
</g>
<!-- 7 -->
<g id="node8" class="node">
<title>7</title>
<path fill="none" stroke="#d6d856" stroke-width="2" d="M936,-108C936,-108 856,-108 856,-108 850,-108 844,-102 844,-96 844,-96 844,-84 844,-84 844,-78 850,-72 856,-72 856,-72 936,-72 936,-72 942,-72 948,-78 948,-84 948,-84 948,-96 948,-96 948,-102 942,-108 936,-108"/>
<text text-anchor="middle" x="896" y="-87.5" font-family="sans" font-size="10.00">version_control_sys</text>
</g>
<!-- 7&#45;&gt;0 -->
<g id="edge3" class="edge">
<title>7&#45;&gt;0</title>
<path fill="none" stroke="grey" stroke-width="2" d="M843.87,-73.98C840.88,-73.27 837.91,-72.6 835,-72 710.89,-46.17 561.29,-29.45 492.7,-22.58"/>
<polygon fill="grey" stroke="grey" stroke-width="2" points="492.7,-19.06 482.4,-21.56 492.01,-26.02 492.7,-19.06"/>
</g>
</g>
</svg>
